<?xml version="1.0" encoding="utf-8"?>
<!-- Generator: Adobe Illustrator 28.2.0, SVG Export Plug-In . SVG Version: 6.00 Build 0)  -->
<svg version="1.1" id="Layer_1" xmlns="http://www.w3.org/2000/svg" xmlns:xlink="http://www.w3.org/1999/xlink" x="0px" y="0px"
	 viewBox="0 0 480 179.1" enable-background="new 0 0 480 179.1" xml:space="preserve">
<g id="icon-logo-short">
	<path fill="#808184" d="M158.7,149.6h11.4v28.7h-11.4V149.6z M158.7,141.8h11.4v5.5h-11.4V141.8z M196.3,141.8h11.4v5.5h-11.4
		V141.8z M196.3,149.6h11.4v28.7h-11.4V149.6z M230.3,149.6h11.4v28.7h-10.6v-4.2c-2.8,3.9-5.6,5-10.4,5c-6.3,0-10.3-3.8-10.3-12.1
		v-17.5h11.4V165c0,3.9,1.4,5.2,4.1,5.2c3.3,0,4.3-2.5,4.3-6.9v-13.7H230.3z M272.9,169.1c0,6-4.9,10-15.5,10
		c-6.6,0-13.8-2-14.4-9.8h10.8c0,1.2,0.4,2,1.2,2.6c0.7,0.5,1.7,0.9,2.8,0.9c1.8,0,3.6-0.5,3.6-2.6c0-4.6-17.6-0.9-17.6-12.1
		c0-7.3,7.6-9.5,13.6-9.5c6.3,0,13.6,1.4,14.2,9h-10.4c-0.1-0.9-0.5-1.6-1.1-2.1c-0.6-0.5-1.4-0.7-2.3-0.7c-2,0-3.2,0.6-3.2,2
		C254.8,161.1,272.9,158.4,272.9,169.1L272.9,169.1z M155.3,161.9c0.9,1.3,1.4,2.9,1.4,4.9c-0.1,7.4-6.1,12.3-19.2,12.3
		c-8.2,0-17.2-2.5-17.9-12v-0.5h12.3l-2.7,8l9-6.2l9,6.2l-2.3-6.9c-0.4-0.7-1.3-1.1-1.3-1.1c-4.9-2.7-22.7-1.2-22.7-13.2
		c0-9,9.5-11.7,16.9-11.7c7.8,0,16.9,1.8,17.7,11.1v0.4h-13.8l-3.4-10.1l-3.4,10.1h-11.1l6.2,4.3c1.8-0.7,3.7-1,5.7-1.3
		c2.1-0.2,4.2-0.3,6.3-0.1c1.8,0.1,3.5,0.4,5.2,0.8c1.5,0.4,3.1,0.8,4.5,1.5C153,159.3,154.4,160.4,155.3,161.9z M192.4,148.8
		c0.7,0,1.5,0.2,1.5,0.2v11.4c0,0-0.6-0.3-2.4-0.3c-4.7,0-7,2.2-7,8.4v9.9h-11.4v-28.7h10.4v5.8h0.1
		C185.2,151,187.9,148.8,192.4,148.8L192.4,148.8z M341.4,142.6h19.2v35.7h-12.1v-10.1c0-4.9,0.1-9.5,0.3-13.6
		c-0.4,1.7-0.8,3.3-1.2,4.9l-5,18.9h-10.2l-5.1-18.9l-0.5-2c-0.2-0.6-0.3-1.2-0.4-1.7c-0.1-0.5-0.2-0.8-0.2-0.8
		c0.2,4.1,0.3,8.5,0.3,13.3v10.1h-12.1v-35.7h19.2l3.1,13.6l0.9,4.3c0.4-2.1,0.7-3.6,0.9-4.3C338.4,156.2,341.4,142.6,341.4,142.6z
		 M299,159.3l14.1,19.1h-14.6l-2.2-3.3l-4.2-6.5c-1.1,1.7-2.7,3.9-4.6,6.5l-2.4,3.3h-13.9l14.5-18.3l-12.9-17.4h14.5l2.2,3.1
		l3.1,4.6c0.1-0.1,0.6-0.9,1.5-2.2l1.7-2.4l2.2-3.1h13.5L299,159.3L299,159.3z"/>
</g>
<g id="Layer_1_00000050660143821488689610000003783987005659908531_">
	<g id="Layer_1_00000178199820136797570670000011227567866721629314_">
		<path fill="#808184" d="M25,0.1c-7.9,0-14.3,6.4-14.3,14.3v18.3h28.6V14.4C39.3,6.5,32.9,0.1,25,0.1L25,0.1z M10.7,38.7
			C10.7,46.6,17.1,53,25,53s14.3-6.4,14.3-14.3l0,0V36H10.7V38.7z"/>
		<path fill="#808184" d="M39.7,33.4h22c0.2,0,0.3-0.1,0.4-0.2l0,0c0.2-0.4,0.5-0.7,0.8-1l0,0c0.5-0.7,1.3-1.1,2.1-1.2l0,0
			c0.1,0,0.2,0,0.3,0l0,0c0.8,0.2,1.6,0.7,2.1,1.4l0,0c0.3,0.4,0.6,0.7,0.9,1.1l0,0c0.1,0.1,0.3,0.2,0.5,0.2h2.9l1.9-31.1
			c0-0.1,0-0.2,0-0.3l0,0c0-0.2,0.1-0.3,0.2-0.5l0,0c0.2-0.2,0.5-0.4,0.8-0.4l0,0c0.3,0,0.6,0.1,0.8,0.4l0,0C75.5,1.9,75.5,2,75.5,2
			l0,0c0,0.1,0,0.1,0,0.2l0,0c0,0.1,0,0.2,0,0.3l0,0l1.8,35.8l0.3-3.4l0,0c0.2-0.9,0.9-1.5,1.8-1.5h7.1c0.3,0,0.5-0.1,0.8-0.3l0,0
			c2-1.7,4.2-3.2,6.6-4.4l0,0c0.4-0.2,0.8-0.3,1.3-0.3l0,0c1.5,0.2,2.7,1.1,3.3,2.4l0,0c0.4,0.7,0.7,1.4,1,2.2l0,0l0,0l0,0h0.1h14.9
			l0,0l0,0l0,0l0,0c0.4-1.3,1.5-2.2,2.8-2.3l0,0h0.3l0,0c1.4,0.1,2.6,1,3.2,2.3l0,0l0.1,0.1l0,0c0.1,0,0.1,0.1,0.1,0.1h3.9l1.6-30.8
			c0-0.1,0-0.2,0-0.3l0,0c0-0.2,0.1-0.3,0.2-0.5l0,0c0.2-0.3,0.5-0.4,0.8-0.4l0,0c0.3,0,0.6,0.2,0.8,0.4l0,0c0,0.1,0.1,0.2,0.1,0.2
			l0,0c0,0.1,0,0.1,0,0.2l0,0c0,0.1,0,0.2,0,0.3l0,0l1.9,36.1l0.4-3.7l0,0c0.2-0.9,0.9-1.5,1.8-1.5h6.9c0.3,0,0.6-0.1,0.8-0.3l0,0
			c0,0,3-2.3,4.2-3.1l0,0c0.8-0.5,2.1-1.9,3.9-1.9l0,0c0.7,0,1.4,0.4,1.8,1l0,0c1.2,1.6,2.6,4,2.6,4l0,0c0.1,0.1,0.2,0.2,0.4,0.2
			h13.5c0.2,0,0.4-0.1,0.6-0.3l0,0c0.3-0.4,0.7-0.8,1.1-1.1l0,0c0.7-0.7,1.5-1.1,2.5-1.2l0,0c0.1,0,0.2,0,0.3,0l0,0
			c0.8,0.2,1.6,0.7,2,1.4l0,0c0.3,0.3,0.5,0.7,0.7,1.1l0,0c0,0,0,0.1,0.1,0.1l0,0c0,0,0.1,0.1,0.2,0.1h3.3l1.6-31c0-0.1,0-0.2,0-0.3
			l0,0c0-0.2,0.1-0.3,0.2-0.5l0,0c0.2-0.3,0.5-0.4,0.8-0.4l0,0c0.3,0,0.6,0.2,0.8,0.4l0,0c0.1,0.1,0.1,0.2,0.1,0.2l0,0
			c0,0.1,0,0.1,0,0.2l0,0c0,0.1,0,0.2,0,0.3l0,0l1.9,36.4l0.3-3.5l0,0c0.2-0.9,0.9-1.5,1.8-1.5h7.1c0.3,0,0.7-0.1,1-0.3l0,0
			c0,0,0.2-0.1,0.5-0.4l0,0c0.5-0.4,1-0.8,1.5-1.3l0,0c0.6-0.5,1.5-1.5,2.4-2.3l0,0c0.8-0.9,1.9-1.5,3.1-1.7l0,0
			c0.2,0,0.4,0,0.6,0.1l0,0c1.2,0.5,1.9,1.7,2.8,2.9l0,0c0.8,1.2,1.3,2.2,1.3,2.3l0,0c0,0.1,0.1,0.1,0.2,0.1l0,0
			c0.1,0,0.1,0.1,0.2,0.1h13.9c0.2,0,0.4-0.1,0.5-0.3l0,0c0,0,0.4-0.5,0.8-1l0,0c0.5-0.6,1.1-1,1.7-1.3l0,0c0.2-0.1,0.3-0.1,0.5-0.1
			l0,0c0.9,0.1,1.7,0.6,2.3,1.3l0,0c0.6,0.5,1,1.1,1.1,1.1l0,0c0.2,0.1,0.4,0.2,0.6,0.3h2.8l2-31V1.8l0,0c0-0.2,0.1-0.4,0.2-0.5l0,0
			c0.2-0.2,0.5-0.4,0.8-0.4l0,0c0.3,0,0.6,0.1,0.7,0.4l0,0c0.1,0.1,0.1,0.2,0.1,0.2l0,0c0,0.1,0,0.1,0,0.2l0,0c0,0.1,0,0.2,0,0.4
			l0,0l2.2,35.8l0.3-3.5l0,0c0.2-0.9,0.9-1.5,1.8-1.5h6.4c0.4,0,0.9-0.1,1.3-0.2l0,0c0,0,0.4-0.1,1-0.4l0,0c0.5-0.2,1-0.5,1.4-0.9
			l0,0c1.1-1.2,2.4-2.3,3.8-3.3l0,0c0.4-0.3,1-0.5,1.5-0.6l0,0c1.6-0.1,3,1,3.4,2.6l0,0c0.2,0.6,0.4,1.2,0.8,1.7l0,0
			c0.3,0.5,0.6,0.9,0.6,0.9l0,0c0.2,0.1,0.3,0.2,0.5,0.3h12.5c0.4,0,0.7-0.1,1-0.3l0,0c0,0,1.3-0.7,2.4-1.4l0,0
			c0.7-0.4,1.1-1,2.2-1.1l0,0c0.6,0,1.1,0.3,1.5,0.8l0,0c0.6,0.7,1,1.4,1.3,1.6l0,0l0.1,0.1h2.9l2.2-30.8c0-0.1,0-0.2,0-0.3l0,0
			c0-0.2,0.1-0.4,0.2-0.5l0,0c0.2-0.2,0.4-0.4,0.7-0.4l0,0c0.3,0,0.6,0.1,0.7,0.4l0,0c0.1,0.1,0.1,0.2,0.1,0.3l0,0
			c0,0.1,0,0.1,0.1,0.2l0,0c0,0.1,0,0.2,0,0.4l0,0l1.9,36.9l0.5-4.5l0,0c0.2-0.9,0.9-1.5,1.8-1.5h7.8l1.3-1l0,0
			c0.7-0.5,1.5-1.4,2.4-2.2l0,0c0.8-0.8,1.8-1.4,2.9-1.5l0,0c1.9-0.2,3.7,0.8,4.5,2.5l0,0c0.3,0.8,0.7,1.5,1.3,2.1l0,0
			c0.2,0.2,0.5,0.3,0.8,0.3h12.7c0.2,0,0.3-0.1,0.5-0.2l0,0c0.7-1,1.6-1.8,2.7-2.2l0,0c0.2,0,0.3-0.1,0.5-0.1l0,0
			c1,0.1,1.9,0.5,2.6,1.1l0,0c0.7,0.5,1.3,1,1.3,1l0,0c0.2,0.2,0.5,0.3,0.8,0.3h2.7l1.6-31.3c0-0.1,0-0.2,0-0.3l0,0
			c0-0.2,0.1-0.3,0.2-0.5l0,0c0.2-0.3,0.5-0.4,0.8-0.4l0,0c0.3,0,0.6,0.2,0.8,0.4l0,0c0,0.1,0.1,0.2,0.1,0.2l0,0c0,0.1,0,0.1,0,0.2
			l0,0c0,0.1,0,0.2,0,0.3l0,0l1.9,37.6l0.5-4.7l0,0c0.2-0.9,1-1.5,1.8-1.5h7.6h0.4l0,0h0.1l0,0l0.3-0.3l0,0l0.8-0.8l0,0
			c0.6-0.6,1.2-1.2,1.3-1.3l0,0c0.1,0,2.4-2.7,5.6-2.8l0,0c1.5,0.1,2.8,1,3.5,2.3l0,0c0.4,0.7,0.6,1.4,0.8,2.1l0,0
			c0,0.2,0.1,0.3,0.1,0.5h13.8c0.1,0,0.1,0,0.2-0.1l0,0c0.1,0,0.1-0.1,0.2-0.1l0,0c0.5-0.8,1.3-1.5,2.2-1.9l0,0
			c0.3-0.1,0.6-0.2,1-0.2l0,0c1.8,0.1,2.9,1.7,3.5,2.2l0,0l0.2,0.1l0,0c0.3,0,0.6,0.1,0.8,0l0,0c0.8,0,1.6-0.1,2.4-0.2l0,0l0,0l0,0
			c0-0.3,1.3-27,1.7-31.2l0,0c0-0.2,0-0.5,0.1-0.7l0,0c0-0.1,0.1-0.2,0.1-0.2l0,0c0.2-0.3,0.5-0.4,0.8-0.4l0,0
			c0.3,0,0.7,0.2,0.8,0.5l0,0c0,0.1,0.1,0.1,0.1,0.2l0,0c0,0.1,0,0.1,0,0.2l0,0c0,0.2,0,0.3,0.1,0.5l0,0c0,0.4,0.1,0.9,0.1,1.6l0,0
			c0.1,1.3,0.2,3.2,0.3,5.5l0,0c0.2,4.6,0.5,10.6,0.8,16.7l0,0c0.2,4.9,0.4,9.8,0.6,13.9l0,0l0.5-4.6l0,0c0.2-0.9,0.9-1.5,1.8-1.5
			h7.1c0.4,0,0.9-0.1,1.3-0.1l0,0h0.1l0,0c0.2-0.1,0.3-0.2,0.5-0.3l0,0c0.8-0.5,1.4-1.1,2-1.9l0,0c1.3-1.5,2.8-2.9,4.7-2.9l0,0
			c1.1,0,2,0.5,2.7,1.4l0,0c1.8,2.1,2.1,3.2,2.1,3.5H430c0.1,0,0.3-0.1,0.4-0.2l0,0c0.8-1.3,2.1-2,3.6-2.1l0,0
			c0.9,0,1.7,0.5,2.2,1.2l0,0c0.2,0.4,0.4,0.8,0.6,1.2h4.2l1.3-31c0-0.1,0-0.2,0-0.3l0,0c0-0.2,0.1-0.3,0.1-0.5l0,0
			c0.2-0.3,0.5-0.4,0.8-0.4l0,0c0.3,0,0.6,0.2,0.8,0.4l0,0c0,0.1,0.1,0.1,0.1,0.2l0,0c0,0.1,0,0.1,0,0.2l0,0c0,0.1,0,0.2,0,0.3l0,0
			l2.1,36.5l0.4-3.9l0,0c0.2-0.9,0.9-1.5,1.8-1.5h7.4c0.5,0,1,0,1.4-0.1l0,0c0,0,0,0,0.1,0l0,0c0.1,0,0.3-0.1,0.4-0.2l0,0
			c0.4-0.2,0.8-0.5,1-0.9l0,0c0.6-0.8,1.2-1.6,2-2.3l0,0c0.9-0.9,2-1.5,3.3-1.6l0,0c0.4,0,0.8,0.1,1.2,0.3l0,0c1,0.4,1.7,1.3,2,2.3
			l0,0c0.1,0.5,0.2,1.1,0.5,1.5l0,0l0.7,0.9l0,0c0.3,0.1,0.6,0.1,0.9,0.1h8.3c0.5,0,0.9,0.4,0.9,0.9l0,0c0,0.5-0.4,0.9-0.9,0.9h-8.3
			c-0.6,0-1.3-0.1-1.8-0.4l0,0l-0.2-0.1l-0.1-0.2l-0.8-1.1l0,0c-0.4-0.7-0.7-1.4-0.8-2.1l0,0c-0.1-0.5-0.5-1-1-1.1l0,0
			c-0.1-0.1-0.3-0.1-0.4-0.1l0,0c-0.8,0.1-1.5,0.5-2,1.1l0,0c-0.6,0.6-1.2,1.3-1.7,2l0,0c-0.7,1-1.7,1.6-2.8,1.8l0,0
			c-0.6,0.1-1.1,0.1-1.7,0.1h-7.2L447.4,49l0,0c0,0.2-0.1,0.5-0.2,0.7l0,0c-0.2,0.3-0.5,0.4-0.8,0.4l0,0c-0.3,0-0.6-0.2-0.8-0.5l0,0
			c-0.1-0.1-0.1-0.2-0.1-0.3l0,0c0-0.1-0.1-0.3-0.1-0.4l0,0l-1.7-29.5l-1.5,13.4c0,0.9-0.8,1.7-1.7,1.7H436c-0.6,0-1-0.3-1.3-0.8
			l0,0c-0.2-0.3-0.3-0.6-0.4-0.9l0,0c-0.3-0.6-0.4-0.7-0.8-0.7l0,0c-0.7,0-1.4,0.4-1.9,1l0,0c0,0-0.1,0.1-0.1,0.2l0,0
			c-0.4,0.7-1.1,1.1-1.9,1.1h-13.7c-0.9,0-1.7-0.7-1.8-1.6l0,0c0-0.1-0.1-0.3-0.2-0.4l0,0c-0.4-0.8-0.9-1.5-1.5-2.2l0,0
			c-0.3-0.4-0.8-0.7-1.3-0.7l0,0c-0.8,0-2.2,0.9-3.3,2.3l0,0c-1.9,2.3-3.4,2.7-3.5,2.7l0,0c-0.6,0.1-1.2,0.2-1.8,0.2h-7l0,0l0,0
			l-1.7,14.9l0,0c0,0.2-0.1,0.5-0.3,0.6l0,0c-0.2,0.3-0.5,0.4-0.8,0.4l0,0c-0.3,0-0.6-0.2-0.8-0.5l0,0c-0.1-0.1-0.1-0.2-0.1-0.3l0,0
			c0-0.1,0-0.3,0-0.4l0,0c0,0-0.8-19.7-1.5-34l0,0l-0.1,1.6l0,0c-0.4,7.8-0.8,15.5-0.8,15.5l0,0c-0.1,0.9-0.7,1.6-1.6,1.7l0,0
			c-0.9,0.1-1.8,0.2-2.7,0.2l0,0c-0.8,0.1-1.6-0.1-2.3-0.5l0,0c-0.6-0.7-1.9-1.8-2.3-1.7l0,0c-0.1,0-0.1,0-0.2,0l0,0
			c-0.5,0.2-1,0.6-1.4,1.1l0,0c-0.4,0.7-1.1,1.1-1.9,1.2h-13.8c-0.3,0-0.5,0-0.8-0.1l0,0c-0.2-0.1-0.5,0-0.9-0.7l0,0
			c-0.1-0.3-0.2-0.7-0.3-1.1l0,0c0-0.2-0.1-0.3-0.1-0.5l0,0c-0.1-0.4-0.3-0.7-0.5-1.1l0,0c-0.3-0.8-1-1.3-1.9-1.4l0,0
			c-1.5,0.2-2.9,0.8-3.9,1.9l0,0c-0.2,0.2-0.3,0.3-0.3,0.3l0,0c-0.3,0.3-1.9,2-2.5,2.5l0,0c-0.1,0.1-0.2,0.2-0.3,0.2l0,0
			c-0.2,0.1-0.5,0.2-0.8,0.2l0,0c-0.2,0-0.5,0-0.8,0h-7.6l0,0l0,0l-1.7,14.7l0,0c0,0.2-0.1,0.5-0.3,0.6l0,0
			c-0.2,0.2-0.5,0.4-0.8,0.4l0,0c-0.3,0-0.6-0.2-0.8-0.5l0,0c-0.1-0.1-0.1-0.2-0.1-0.3l0,0c0-0.1-0.1-0.3-0.1-0.4l0,0l-1.4-29.9
			l-0.4,13.5c0,0.9-0.8,1.6-1.7,1.6h-2.8c-0.7,0-1.4-0.3-1.9-0.7l0,0c-0.4-0.3-0.7-0.6-1.1-0.8l0,0c-0.5-0.4-1-0.6-1.6-0.8l0,0
			c-0.4,0.2-0.8,0.4-1.1,0.8l0,0c-0.2,0.2-0.4,0.4-0.6,0.7l0,0c-0.5,0.6-1.2,1-2,1h-12.8c-0.7,0-1.4-0.3-1.9-0.7l0,0
			c-0.8-0.8-1.4-1.7-1.8-2.8l0,0c-0.7-1.4-1.5-1.4-2.8-1.5l0,0c-0.6,0.2-1.2,0.6-1.6,1.1l0,0c-0.8,0.7-1.6,1.6-2.4,2.3l0,0
			c-0.5,0.5-1.1,0.9-1.7,1.3l0,0c-0.1,0.1-0.3,0.1-0.5,0.1h-8.1l-1.6,15.2l0,0c0,0.2-0.1,0.4-0.2,0.6l0,0c-0.2,0.3-0.5,0.4-0.8,0.4
			l0,0c-0.3,0-0.7-0.2-0.8-0.5l0,0c-0.1-0.1-0.1-0.2-0.1-0.3l0,0c0-0.1,0-0.3-0.1-0.4l0,0l-1.7-33.5L284,32.8
			c-0.1,0.9-0.8,1.6-1.7,1.6h-3c-0.7-0.1-1.3-0.4-1.6-1l0,0c-0.3-0.4-0.7-0.9-1-1.3l0,0l-0.2-0.1l0,0c-0.1,0-0.2,0.1-0.2,0.1l0,0
			c-0.2,0.1-0.5,0.4-1,0.6l0,0c-1.2,0.8-2.5,1.5-2.5,1.5l0,0c-0.6,0.3-1.3,0.5-1.9,0.5h-12.5c-0.8,0-1.5-0.4-2-1l0,0
			c-0.7-1-1.3-2.1-1.7-3.3l0,0c-0.2-0.7-0.8-1.2-1.6-1.1l0,0H253l0,0c-0.2,0.1-0.3,0.2-0.4,0.2l0,0c-0.4,0.3-0.9,0.6-1.3,1l0,0
			c-0.8,0.6-1.5,1.3-2.2,2l0,0c-0.9,0.8-2,1.4-3.2,1.7l0,0c-0.6,0.2-1.2,0.2-1.8,0.3h-6.4l-1.3,14.9l0,0c0,0.2-0.1,0.4-0.2,0.6l0,0
			c-0.2,0.3-0.5,0.4-0.8,0.4l0,0c-0.3,0-0.7-0.2-0.8-0.5l0,0c-0.1-0.1-0.1-0.2-0.1-0.3l0,0c0-0.1-0.1-0.3-0.1-0.4l0,0l-1.7-32.4
			L231.5,33c-0.1,0.9-0.8,1.6-1.7,1.6h-2.9c-0.8,0-1.5-0.4-2-1l0,0c0,0-0.4-0.4-0.8-0.9l0,0c-0.3-0.3-0.7-0.6-1.1-0.8l0,0
			c-0.4,0.2-0.7,0.5-1,0.8l0,0c-0.4,0.4-0.7,0.8-0.7,0.8l0,0c-0.5,0.6-1.2,0.9-1.9,1h-13.9c-0.8,0-1.5-0.5-1.9-1.2l0,0
			c0,0-0.5-1-1.3-2.1l0,0c-0.5-0.8-1.1-1.6-1.8-2.2l0,0c-0.7,0.2-1.4,0.7-1.9,1.2l0,0c-0.8,0.8-1.7,1.7-2.4,2.3l0,0
			c-0.7,0.7-1.5,1.3-2.3,1.9l0,0c-0.6,0.3-1.2,0.5-1.9,0.5h-7.1l0,0l0,0l-1.4,14.4l0,0c0,0.2-0.1,0.4-0.2,0.6l0,0
			c-0.2,0.3-0.5,0.4-0.8,0.4l0,0c-0.3,0-0.6-0.2-0.8-0.5l0,0c-0.1-0.1-0.1-0.2-0.1-0.3l0,0c0-0.1-0.1-0.3-0.1-0.4l0,0l-1.7-30.8
			l-0.7,14.6c0,1-0.7,1.7-1.7,1.8l0,0H174c-0.8,0-1.6-0.5-1.9-1.2l0,0l-0.1-0.2l0,0c-0.1-0.2-0.2-0.4-0.3-0.5l0,0
			c-0.2-0.3-0.5-0.5-0.8-0.7l0,0c-0.5,0.2-0.9,0.4-1.2,0.8l0,0c-0.3,0.3-0.6,0.6-0.9,0.9l0,0c-0.5,0.6-1.2,0.9-2,1h-13.5
			c-0.8,0-1.5-0.4-1.9-1.1l0,0c0,0-1.4-2.4-2.5-3.9l0,0c-0.2-0.2-0.2-0.2-0.4-0.2l0,0c-0.5-0.1-1.9,1-2.9,1.6l0,0
			c-1.1,0.7-4.1,3-4.1,3l0,0c-0.6,0.4-1.2,0.6-1.9,0.7h-6.9L131,49.8l0,0c0,0.2-0.1,0.4-0.2,0.6l0,0c-0.2,0.3-0.5,0.4-0.8,0.4l0,0
			c-0.3,0-0.7-0.2-0.8-0.5l0,0c0-0.1-0.1-0.2-0.1-0.3l0,0c0-0.1,0-0.3,0-0.4l0,0l-1.8-30.7l-0.7,14.5c0,0.9-0.8,1.6-1.7,1.6H121
			c-0.8,0-1.6-0.5-1.9-1.3l0,0c0-0.1-0.1-0.1-0.1-0.2l0,0c-0.1-0.2-0.2-0.3-0.3-0.5l0,0c-0.2-0.3-0.6-0.5-1.1-0.6h-0.1
			c-0.5,0-1,0.3-1.1,0.8l0,0c0,0.1,0,0.1,0,0.1l0,0c-0.2,0.8-1,1.4-1.8,1.5H99.7c-0.9,0-1.6-0.6-1.9-1.4l0,0c0,0-0.1-0.2-0.2-0.5
			l0,0c-0.2-0.4-0.4-0.8-0.6-1.2l0,0c-0.5-0.9-1.2-1.5-1.7-1.5l0,0c-0.2,0-0.4,0-0.5,0.1l0,0c-1.4,0.7-2.8,1.5-4.1,2.5l0,0
			c-1.2,0.9-2.1,1.6-2.1,1.6l0,0c-0.6,0.4-1.2,0.7-1.9,0.7h-7.1L78,49.8l0,0c0,0.2-0.1,0.4-0.2,0.6l0,0c-0.2,0.3-0.5,0.4-0.8,0.4
			l0,0c-0.3,0-0.7-0.1-0.8-0.4l0,0c0-0.1-0.1-0.2-0.1-0.3l0,0c0-0.1,0-0.3,0-0.4l0,0l-1.6-31.5l-1,15.7c-0.1,0.9-0.8,1.6-1.7,1.6
			h-2.9c-0.8,0-1.5-0.4-1.9-1l0,0c-0.2-0.3-0.5-0.6-0.7-0.9l0,0c-0.3-0.3-0.6-0.6-1-0.8l0,0c-0.1,0-0.1,0.1-0.2,0.1l0,0
			c-0.2,0.1-0.4,0.3-0.5,0.5l0,0c-0.2,0.2-0.4,0.5-0.6,0.8l0,0c-0.4,0.6-1.2,1-1.9,1.1H39.7V33.4z"/>
		<path fill="#FFFFFF" d="M23.5,6.1c0-1-0.8-1.8-1.8-1.8s-1.8,0.8-1.8,1.8s0.8,1.8,1.8,1.8l0,0C22.7,7.9,23.5,7.1,23.5,6.1z"/>
		<path fill="#FFFFFF" d="M29.6,6.1c0-1-0.8-1.8-1.8-1.8S26,5.1,26,6.1s0.8,1.8,1.8,1.8l0,0C28.8,7.9,29.6,7.1,29.6,6.1z"/>
		<path fill="#FFFFFF" d="M20.5,11.1c0-1-0.8-1.8-1.8-1.8c-1,0-1.8,0.8-1.8,1.8s0.8,1.8,1.8,1.8l0,0C19.7,12.9,20.5,12.1,20.5,11.1z
			"/>
		<path fill="#FFFFFF" d="M26.5,11.1c0-1-0.8-1.8-1.8-1.8s-1.8,0.8-1.8,1.8s0.8,1.8,1.8,1.8l0,0C25.7,12.9,26.5,12.1,26.5,11.1z"/>
		<path fill="#FFFFFF" d="M32.5,11.1c0-1-0.8-1.8-1.8-1.8c-1,0-1.8,0.8-1.8,1.8s0.8,1.8,1.8,1.8l0,0C31.7,12.9,32.5,12.1,32.5,11.1z
			"/>
		<path fill="#FFFFFF" d="M20.5,20.8c0-1-0.8-1.8-1.8-1.8c-1,0-1.8,0.8-1.8,1.8c0,1,0.8,1.8,1.8,1.8l0,0
			C19.7,22.6,20.5,21.8,20.5,20.8z"/>
		<path fill="#FFFFFF" d="M26.5,20.8c0-1-0.8-1.8-1.8-1.8s-1.8,0.8-1.8,1.8c0,1,0.8,1.8,1.8,1.8l0,0C25.7,22.6,26.5,21.8,26.5,20.8z
			"/>
		<path fill="#FFFFFF" d="M32.5,20.8c0-1-0.8-1.8-1.8-1.8c-1,0-1.8,0.8-1.8,1.8c0,1,0.8,1.8,1.8,1.8l0,0
			C31.7,22.6,32.5,21.8,32.5,20.8z"/>
		<path fill="#FFFFFF" d="M17.7,16c0-1-0.8-1.8-1.8-1.8S14.1,15,14.1,16s0.8,1.8,1.8,1.8l0,0C16.9,17.8,17.7,17,17.7,16L17.7,16z"/>
		<path fill="#FFFFFF" d="M23.7,16c0-1-0.8-1.8-1.8-1.8c-1,0-1.8,0.8-1.8,1.8s0.8,1.8,1.8,1.8l0,0C22.9,17.8,23.7,17,23.7,16
			L23.7,16z"/>
		<path fill="#FFFFFF" d="M29.7,16c0-1-0.8-1.8-1.8-1.8S26.1,15,26.1,16s0.8,1.8,1.8,1.8l0,0C28.9,17.8,29.7,17,29.7,16z"/>
		<path fill="#FFFFFF" d="M35.8,16c0-1-0.8-1.8-1.8-1.8c-1,0-1.8,0.8-1.8,1.8s0.8,1.8,1.8,1.8l0,0C35,17.8,35.8,17,35.8,16z"/>
		<path fill="#624098" d="M62.7,58.5H74c13.1,0,21.1,8.2,21.1,20.1s-8,20.1-21.1,20.1H62.7V58.5z M73.6,93.1
			c10.4,0,14.9-6,14.9-14.5S84,64.2,73.6,64.2H69v28.9H73.6z"/>
		<path fill="#624098" d="M100,78.6c-0.1-11.5,9.2-20.8,20.6-20.9c11.5-0.1,20.8,9.2,20.9,20.6c0.1,11.5-9.2,20.8-20.6,20.9h-0.1
			c-11.2,0.2-20.5-8.7-20.7-19.9C100,79.1,100,78.8,100,78.6z M134.9,78.6c0-8.5-5.8-14.9-14.2-14.9c-8.3,0-14.2,6.4-14.2,14.9
			s5.9,14.9,14.2,14.9C129.1,93.5,134.9,87.1,134.9,78.6L134.9,78.6z"/>
		<path fill="#624098" d="M146.3,78.6C146,67.5,154.9,58.2,166,58c0.3,0,0.5,0,0.8,0c7.4,0,12.6,2.9,16.1,7.8l-4.8,3.4
			c-2.7-3.6-6.1-5.5-11.4-5.5c-8,0-13.8,6.4-13.8,14.9c0,8.7,5.9,14.9,14,14.9c4.7,0.2,9.3-2,12.1-5.9l4.9,3.4
			c-4.1,5.5-9.4,8.2-17.2,8.2C155.2,99.2,146.3,90.5,146.3,78.6z"/>
		<path fill="#624098" d="M199.2,64.1h-11.9v-5.6h30.2v5.6h-11.9v34.6h-6.3V64.1H199.2z"/>
		<path fill="#624098" d="M218.9,78.6c-0.1-11.5,9.2-20.8,20.6-20.9c11.5-0.1,20.8,9.2,20.9,20.6s-9.2,20.8-20.6,20.9h-0.1
			c-11.2,0.2-20.5-8.7-20.7-19.9C218.9,79.1,218.9,78.8,218.9,78.6z M254,78.6c0-8.5-5.9-14.9-14.2-14.9c-8.3,0-14.1,6.4-14.1,14.9
			s5.8,14.9,14.2,14.9C248.2,93.5,254,87.1,254,78.6z"/>
		<path fill="#624098" d="M438.6,78.6c-0.1-11.4,9.2-20.8,20.6-20.8C470.6,57.7,480,67,480,78.4c0.1,11.4-9.2,20.8-20.6,20.8h-0.1
			c-11.2,0.2-20.5-8.7-20.7-19.9C438.6,79.1,438.6,78.8,438.6,78.6z M473.6,78.6c0-8.5-5.9-14.9-14.2-14.9s-14.2,6.4-14.2,14.9
			s5.9,14.9,14.2,14.9S473.5,87.1,473.6,78.6L473.6,78.6z"/>
		<path fill="#624098" d="M294.8,98.7h-7.5l-6.9-9.8c-1,0.1-1.9,0.2-2.9,0.2h-4v9.6h-6.3V58.5h10.3c11,0,17.1,6.1,17.1,15.4
			c0,6.2-2.8,11-8,13.4L294.8,98.7z M277.3,83.7c7.7,0,10.9-3.7,10.9-9.8c0-6.1-3.2-9.7-10.9-9.7h-3.7v19.6h3.7V83.7z"/>
		<path fill="#624098" d="M340.2,98.7h-7.5l-6.8-9.8c-1,0.1-1.9,0.2-2.9,0.2h-4v9.6h-6.3V58.5H323c11,0,17.1,6.1,17.1,15.4
			c0,6.2-2.8,11-8,13.4L340.2,98.7z M322.7,83.7c7.7,0,10.9-3.7,10.9-9.8c0-6.1-3.2-9.7-10.9-9.7H319v19.6h3.7V83.7z"/>
		<path fill="#624098" d="M350,98.7h-6.4l17.6-41h0.3l17.7,41h-6.7l-2.3-5.6h-18L350,98.7z M361.3,71.6l-6.7,15.9h13.2
			C367.9,87.5,361.3,71.6,361.3,71.6L361.3,71.6z"/>
		<path fill="#624098" d="M384.8,58.5h11.3c13.1,0,21.1,8.2,21.1,20.1s-8,20.1-21.1,20.1h-11.3V58.5z M395.8,93.1
			c10.4,0,14.9-6,14.9-14.5s-4.5-14.5-14.9-14.5h-4.7V93h4.7V93.1z"/>
		<path fill="#624098" d="M424.3,58.5h6.3v40.2h-6.3V58.5z"/>
		<path fill="#808184" d="M32.1,91.2v-2.7H29V64c12-2.2,20.7-12.6,20.6-24.8h-5.2c0.1,10.9-8.7,19.8-19.6,20
			c-10.9-0.1-19.7-9-19.6-20H0C0,51.4,8.6,61.8,20.6,64v24.5h-3.1v3L10.9,96H5.6v3.6l0,0l0,0v0.1h39v-3.8h-5.7L32.1,91.2z"/>
		<path fill="#808184" stroke="#808184" stroke-width="0.3471" stroke-miterlimit="10" d="M8.2,127.9H5.6v-16.6h4.3
			c4.6,0,7.1,2.5,7.1,6.4s-2.5,6.3-7.1,6.3H8.3v3.9H8.2z M9.7,121.7c3.2,0,4.5-1.5,4.5-4c0-2.5-1.3-4-4.5-4H8.2v8H9.7z"/>
		<path fill="#808184" stroke="#808184" stroke-width="0.3471" stroke-miterlimit="10" d="M21,119.6c-0.1-4.6,3.7-8.5,8.3-8.5
			c0.1,0,0.2,0,0.3,0c4.7-0.2,8.7,3.5,8.8,8.2c0.2,4.7-3.5,8.7-8.2,8.8c-0.2,0-0.4,0-0.6,0c-4.6,0.1-8.5-3.6-8.6-8.2
			C21,119.8,21,119.7,21,119.6z M35.5,119.6c0.2-3.2-2.3-6-5.5-6.2c-3.2-0.2-6,2.3-6.2,5.5c0,0.2,0,0.4,0,0.7c0,3.5,2.4,6.2,5.9,6.2
			c3.2,0,5.8-2.5,5.9-5.7C35.5,119.9,35.5,119.8,35.5,119.6L35.5,119.6z"/>
		<path fill="#808184" stroke="#808184" stroke-width="0.3471" stroke-miterlimit="10" d="M41,111.3h2.8l3.6,10.6l4.7-10.9h0.2
			l4.7,10.9l3.5-10.6H63l-5.8,16.8H57l-4.9-11.6l-5,11.6H47L41,111.3z"/>
		<path fill="#808184" stroke="#808184" stroke-width="0.3471" stroke-miterlimit="10" d="M67.5,111.3h10.6v2.3h-8v6.9h7.1v2.3h-7.1
			v2.8h8.3v2.3H67.5V111.3z"/>
		<path fill="#808184" stroke="#808184" stroke-width="0.3471" stroke-miterlimit="10" d="M95,127.9h-3.1l-2.8-4
			c-0.4,0-0.8,0.1-1.2,0.1h-1.6v4h-2.6v-16.6H88c4.6,0,7.1,2.5,7.1,6.4c0.1,2.4-1.2,4.6-3.3,5.5L95,127.9z M87.8,121.8
			c3.2,0,4.5-1.5,4.5-4c0-2.5-1.3-4-4.5-4h-1.5v8.1h1.5V121.8z"/>
		<path fill="#808184" stroke="#808184" stroke-width="0.3471" stroke-miterlimit="10" d="M100.2,111.3h10.6v2.3h-8v6.9h7.1v2.3
			h-7.1v2.8h8.3v2.3h-11v-16.6H100.2z"/>
		<path fill="#808184" stroke="#808184" stroke-width="0.3471" stroke-miterlimit="10" d="M116.3,111.3h4.7c5.4,0,8.7,3.4,8.7,8.3
			c0,4.9-3.3,8.3-8.7,8.3h-4.7V111.3z M120.9,125.6c4.3,0,6.2-2.5,6.2-6s-1.9-6-6.2-6H119v12H120.9z"/>
		<path fill="#808184" stroke="#808184" stroke-width="0.3471" stroke-miterlimit="10" d="M142.4,111.3h5.9c3.3,0,4.8,1.9,4.8,4.3
			c0,1.4-0.8,2.6-2,3.2c1.9,0.5,3.3,2.2,3.2,4.2c0,2.8-1.8,5-5.6,5h-6.3L142.4,111.3z M148.1,117.8c1.8,0,2.4-0.8,2.4-2.2
			c0-1.4-0.6-2.1-2.4-2.1H145v4.3H148.1z M148.6,125.7c2.3,0,3.1-1.1,3.1-2.9s-1-2.9-3.2-2.9H145v5.8L148.6,125.7L148.6,125.7z"/>
		<path fill="#808184" stroke="#808184" stroke-width="0.3471" stroke-miterlimit="10" d="M156.9,111.3h2.9l4.7,8.7l4.6-8.7h2.7
			l-6.1,11.3v5.3h-2.6v-5.3L156.9,111.3z"/>
		<path fill="#5E3896" stroke="#5E3896" stroke-width="0.3471" stroke-miterlimit="10" d="M186.5,117v10.9H184v-16.8h0.2l10.6,11.2
			v-10.9h2.4v16.8H197L186.5,117z"/>
		<path fill="#5E3896" stroke="#5E3896" stroke-width="0.3471" stroke-miterlimit="10" d="M201.8,111.3h2.9l4.7,8.7l4.6-8.7h2.7
			l-6.1,11.3v5.3H208v-5.3L201.8,111.3z"/>
		<path fill="#5E3896" stroke="#5E3896" stroke-width="0.3471" stroke-miterlimit="10" d="M221.2,122.1v-10.7h2.6V122
			c0,2.7,1.3,3.9,3.7,3.9c2.4,0,3.7-1.2,3.7-3.9v-10.6h2.6v10.7c0,4-2.7,6.1-6.3,6.1S221.2,126.1,221.2,122.1z"/>
		<path fill="#5E3896" stroke="#5E3896" stroke-width="0.3471" stroke-miterlimit="10" d="M246.3,111.3h2.6v14.3h7.4l-1,2.3h-9
			V111.3z M259.9,127.9h-2.6l7.3-17h0.1l7.3,17h-2.8l-1-2.3h-7.4L259.9,127.9z M264.6,116.7l-2.8,6.6h5.5L264.6,116.7L264.6,116.7z"
			/>
		<path fill="#5E3896" stroke="#5E3896" stroke-width="0.3471" stroke-miterlimit="10" d="M278.9,117v10.9h-2.4v-16.8h0.2l10.7,11.2
			v-10.9h2.4v16.8h-0.2L278.9,117z"/>
		<path fill="#5E3896" stroke="#5E3896" stroke-width="0.3471" stroke-miterlimit="10" d="M294.7,119.6c-0.1-4.6,3.6-8.4,8.2-8.5
			c0.1,0,0.2,0,0.3,0c2.4-0.1,4.7,0.8,6.3,2.6l-1.8,1.7c-1.1-1.3-2.8-2.1-4.6-1.9c-3.4,0-5.7,2.6-5.7,6.1c-0.2,3.2,2.3,6,5.6,6.2
			c0.2,0,0.4,0,0.6,0c1.4,0.1,2.8-0.3,4-1.1v-1.9h-4.4v-2.3h6.9v5.4c-1.8,1.5-4.1,2.3-6.4,2.2C298.5,128.2,294.7,124.5,294.7,119.6z
			"/>
		<path fill="#5E3896" stroke="#5E3896" stroke-width="0.3471" stroke-miterlimit="10" d="M314.6,119.6c0-4.7,3.8-8.6,8.5-8.6
			s8.6,3.8,8.6,8.5s-3.8,8.6-8.5,8.6l0,0c-4.6,0.1-8.5-3.6-8.6-8.2C314.6,119.8,314.6,119.7,314.6,119.6z M329,119.6
			c-0.2-3.2-2.9-5.7-6.2-5.6c-3.2,0.2-5.7,2.9-5.6,6.2c0.2,3.1,2.7,5.6,5.9,5.6c3.2,0,5.8-2.5,5.9-5.7
			C329,119.9,329,119.8,329,119.6L329,119.6z"/>
		<path fill="#5E3896" stroke="#5E3896" stroke-width="0.3471" stroke-miterlimit="10" d="M339.2,117v10.9h-2.4v-16.8h0.2l10.7,11.2
			v-10.9h2.4v16.8h-0.2L339.2,117z"/>
		<path fill="#5E3896" stroke="#5E3896" stroke-width="0.3471" stroke-miterlimit="10" d="M355.8,111.3h10.6v2.3h-8v6.9h7.1v2.3
			h-7.1v2.8h8.3v2.3h-10.9V111.3z"/>
		<path fill="#5E3896" stroke="#5E3896" stroke-width="0.3471" stroke-miterlimit="10" d="M390.2,111.3h2.6v16.6h-2.6v-5.1h-8v5.1
			h-2.6v-16.6h2.6v9.2h8V111.3z"/>
		<path fill="#5E3896" stroke="#5E3896" stroke-width="0.3471" stroke-miterlimit="10" d="M398.6,111.3h10.6v2.3h-8v6.9h7.1v2.3
			h-7.1v2.8h8.3v2.3h-10.9V111.3z"/>
		<path fill="#5E3896" stroke="#5E3896" stroke-width="0.3471" stroke-miterlimit="10" d="M416.1,127.9h-2.6l7.3-17h0.1l7.3,17h-2.8
			l-1-2.3H417L416.1,127.9z M420.8,116.7l-2.8,6.6h5.5L420.8,116.7L420.8,116.7z"/>
		<path fill="#5E3896" stroke="#5E3896" stroke-width="0.3471" stroke-miterlimit="10" d="M432.7,111.3h2.6v14.3h7.3v2.3h-9.9V111.3
			z"/>
		<path fill="#5E3896" stroke="#5E3896" stroke-width="0.3471" stroke-miterlimit="10" d="M448.7,113.6h-4.9v-2.3h12.5v2.3h-4.9
			v14.3h-2.6L448.7,113.6z"/>
		<path fill="#5E3896" stroke="#5E3896" stroke-width="0.3471" stroke-miterlimit="10" d="M471.4,111.3h2.6v16.6h-2.6v-5.1h-8v5.1
			h-2.6v-16.6h2.6v9.2h8V111.3z"/>
		<path fill="#5E3896" d="M468.8,71.6L468.8,71.6l-0.1-0.2c-0.5-0.6-1-1.2-1.6-1.8c-2-1.8-4.6-2.9-7.3-2.9c-3.2,0-6.3,1.4-8.4,3.9
			c-0.9,1-1.6,2.1-2.1,3.4v0.1c0,0,0,0,0.1-0.1c0.6-1.1,1.4-2.2,2.4-3c2.3-1.9,5.2-2.9,8.1-2.8c2.4,0,4.7,0.6,6.8,1.8
			c0.7,0.4,1.3,0.9,1.9,1.4L468.8,71.6L468.8,71.6z"/>
		<path fill="#5E3896" d="M448.3,77.9L448.3,77.9c0,0.1,0,0.1,0,0.2c0,1.4,0.3,2.8,0.9,4c1.2,2.5,3.2,4.5,5.7,5.7
			c2.3,1.1,4.8,1.6,7.4,1.3c1.2-0.1,2.4-0.5,3.5-1c0.1,0,0.1,0,0.1,0l0,0l-0.1,0.1l-0.3,0.2c-0.7,0.5-1.4,0.9-2.2,1.2
			c-3,1.3-6.5,1.1-9.4-0.5c-2.9-1.6-4.9-4.4-5.5-7.6c-0.2-1.2-0.3-2.4-0.2-3.6C448.3,78,448.3,77.9,448.3,77.9L448.3,77.9z"/>
		<polygon fill="#5E3896" points="461.6,82 461.6,79.3 463.6,75.1 462,75.1 460.9,77.8 459.7,75.1 458.1,75.1 460.1,79.3 460.1,82 
					"/>
		<path fill="#5E3896" d="M456.2,79.1c-0.5-1-2-3.9-2.1-4l0,0h-1.6V82h1.4v-4.1c0.5,1,2.2,3.9,2.3,4.1l0,0h1.4v-6.9h-1.4L456.2,79.1
			z"/>
		<path fill="#5E3896" d="M468.8,79.6v-4.5h-1.5v4.5c0,0.9-0.3,1.3-0.9,1.3s-0.9-0.4-0.9-1.3v-4.4H464v4.5c0,1.7,0.8,2.5,2.4,2.5
			S468.8,81.3,468.8,79.6z"/>
	</g>
</g>
</svg>
