<svg viewBox="0 0 127 40" fill="none" xmlns="http://www.w3.org/2000/svg"><path fill="#212223" d="M46.91 11.95h6.578c3.557 0 5.933 2.075 5.933 5.312 0 3.236-1.088 3.694-2.77 4.496l3.185 6.157h-3.829l-2.727-5.363h-2.906v5.363H46.91V11.949Zm3.464 2.849v4.904h2.842c1.639 0 2.677-.96 2.677-2.441 0-1.482-1.038-2.463-2.677-2.463h-2.842ZM60.33 22.073c0-3.651 2.42-6.021 6.091-6.021 3.672 0 5.955 2.19 5.998 5.634 0 .344-.021.73-.093 1.096h-8.61v.157c.071 1.661 1.152 2.67 2.791 2.67 1.64 0 2.24-.572 2.52-1.66h3.206c-.372 2.284-2.42 4.102-5.583 4.102-3.163 0-6.32-2.348-6.32-5.978Zm8.811-1.39c-.229-1.438-1.224-2.233-2.698-2.233-1.475 0-2.47.845-2.656 2.234h5.354ZM81.824 16.195h3.257v11.727h-2.885l-.3-1.418c-.759.91-1.797 1.547-3.486 1.547-2.448 0-4.71-1.21-4.71-5.363v-6.5h3.257v6.07c0 2.099.694 3.13 2.312 3.13 1.617 0 2.562-1.16 2.562-3.33v-5.863h-.007ZM87.006 12.915h3.257v3.287h2.698v2.713h-2.698v5.134c0 .823.322 1.16 1.152 1.16h1.682v2.713H90.4c-2.262 0-3.393-1.117-3.393-3.35V12.915ZM93.634 22.073c0-3.651 2.42-6.021 6.091-6.021 3.672 0 5.955 2.19 5.998 5.634 0 .344-.022.73-.093 1.096h-8.61v.157c.071 1.661 1.152 2.67 2.79 2.67 1.64 0 2.241-.572 2.52-1.66h3.207c-.372 2.284-2.419 4.102-5.583 4.102s-6.32-2.348-6.32-5.978Zm8.811-1.39c-.229-1.438-1.224-2.233-2.699-2.233-1.474 0-2.469.845-2.655 2.234h5.354ZM114.398 16.188v2.92h-1.296c-1.939 0-2.677 1.275-2.677 3.058v5.749h-3.256V16.188h2.956l.3 1.754c.645-1.046 1.568-1.755 3.414-1.755h.559ZM118.012 24.02c.115 1.024 1.017 1.733 2.606 1.733s2.197-.437 2.197-1.253c0-.817-.809-1.024-2.727-1.275-2.77-.322-4.917-.938-4.917-3.35 0-2.413 2.054-3.86 5.096-3.83 3.185 0 5.375 1.388 5.54 3.787h-3.114c-.093-.938-.995-1.504-2.312-1.504-1.317 0-2.097.458-2.097 1.21s1.017.981 2.727 1.189c2.727.272 4.989.887 4.989 3.536 0 2.65-2.212 3.81-5.404 3.81-3.192 0-5.54-1.533-5.676-4.039h3.092v-.014Z"/><path fill="#D64000" d="M34.57 5.37c.509.508.788 1.188.788 1.911 0 .723-.28 1.403-.787 1.912a2.7 2.7 0 0 1-3.815 0 2.686 2.686 0 0 1-.788-1.912c0-.723.28-1.403.788-1.912a2.688 2.688 0 0 1 1.91-.794c.695 0 1.382.265 1.912.794h-.007ZM5.375 34.623a2.71 2.71 0 0 1 0-3.823 2.691 2.691 0 0 1 1.911-.795c.723 0 1.403.28 1.911.795a2.71 2.71 0 0 1 0 3.823 2.69 2.69 0 0 1-1.91.795c-.724 0-1.404-.28-1.912-.795ZM25.953 5.577h-.021a2.375 2.375 0 0 1-1.26-1.281 2.338 2.338 0 0 1 0-1.812 2.366 2.366 0 0 1 2.183-1.46c.3 0 .615.064.902.179a2.377 2.377 0 0 1 1.28 3.093 2.37 2.37 0 0 1-3.084 1.281ZM13.105 34.244c.308 0 .609.064.902.179a2.377 2.377 0 0 1 1.281 3.093 2.344 2.344 0 0 1-1.28 1.281 2.337 2.337 0 0 1-1.812 0 2.377 2.377 0 0 1-1.28-3.093 2.367 2.367 0 0 1 2.182-1.46h.007ZM22.002 2.026a2.03 2.03 0 0 1-1.932 2.026h-.093a2.029 2.029 0 0 1-2.026-2.026C17.95.91 18.86 0 19.977 0c1.116 0 2.025.916 2.025 2.033v-.007ZM17.95 37.974c0-1.117.91-2.026 2.027-2.026 1.116 0 2.025.909 2.025 2.026A2.029 2.029 0 0 1 19.977 40a2.029 2.029 0 0 1-2.026-2.026ZM13.757 4.954a1.674 1.674 0 0 1-1.289 0 1.668 1.668 0 0 1-.916-.916 1.69 1.69 0 1 1 3.12-1.296c.173.422.173.88 0 1.296a1.646 1.646 0 0 1-.915.916ZM26.19 35.046a1.73 1.73 0 0 1 .65-.129c.222 0 .437.043.645.129a1.693 1.693 0 0 1 .916 2.212 1.646 1.646 0 0 1-.916.917 1.693 1.693 0 0 1-1.296 0 1.646 1.646 0 0 1-.916-.917 1.693 1.693 0 0 1 .916-2.212ZM8.238 6.343c.516.523.53 1.354.029 1.89l-.029.03c-.53.529-1.388.529-1.91 0a1.357 1.357 0 0 1 0-1.92c.264-.264.608-.393.958-.393.351 0 .695.129.96.393h-.008ZM31.693 31.752c.258-.265.609-.394.952-.394.344 0 .694.13.96.394.257.25.393.594.393.96a1.348 1.348 0 1 1-2.698 0c0-.358.143-.702.393-.96ZM2.748 14.684a1.697 1.697 0 0 1-.916-2.212c.172-.422.494-.745.916-.916.215-.086.43-.13.652-.13.222 0 .436.044.644.13a1.703 1.703 0 0 1 .916 2.212 1.646 1.646 0 0 1-.916.916c-.422.172-.88.172-1.288 0h-.008ZM37.205 25.323a1.694 1.694 0 0 1 .916 2.212 1.69 1.69 0 0 1-3.121 0 1.694 1.694 0 0 1 1.56-2.34c.659 0 .43.042.645.128ZM0 20.01c0-1.116.909-2.026 2.026-2.026 1.116 0 2.025.91 2.025 2.026a2.029 2.029 0 0 1-2.025 2.027A2.029 2.029 0 0 1 0 20.01ZM35.902 20.01c0-1.116.909-2.026 2.025-2.026 1.117 0 2.026.91 2.026 2.026a2.029 2.029 0 0 1-2.026 2.027 2.029 2.029 0 0 1-2.025-2.026ZM1.202 27.786a2.365 2.365 0 0 1 1.282-3.093 2.366 2.366 0 0 1 3.092 1.282 2.338 2.338 0 0 1 0 1.81 2.367 2.367 0 0 1-4.374 0ZM34.363 14.025a2.32 2.32 0 0 1 0-1.804 2.367 2.367 0 0 1 2.183-1.46c.93 0 1.81.551 2.183 1.46a2.365 2.365 0 0 1-1.281 3.093 2.367 2.367 0 0 1-3.092-1.282l.007-.007ZM25.717 25.753a1.893 1.893 0 0 0 0 2.684c.744.745 1.94.745 2.684 0a1.88 1.88 0 0 0 .558-1.338c0-.509-.2-.988-.558-1.34a1.873 1.873 0 0 0-1.339-.55 1.92 1.92 0 0 0-1.345.55v-.006ZM9.899 18.85a1.5 1.5 0 0 1-1.06-1.84c.108-.386.351-.708.702-.916.229-.136.487-.2.744-.2.258 0 .258.014.387.05.386.108.708.351.909.702.2.35.25.752.15 1.145a1.504 1.504 0 0 1-1.84 1.067l.008-.007ZM29.267 24.049a1.492 1.492 0 0 1-.91-.702c-.2-.35-.25-.752-.15-1.146a1.506 1.506 0 0 1 1.453-1.117c.258 0 .215.008.323.036l.071.022a1.504 1.504 0 0 1 .358 2.756c-.35.2-.752.258-1.145.15ZM9.133 22.91a1.213 1.213 0 0 1 .78-1.46l.072-.021a1.21 1.21 0 0 1 1.474.852c.086.315.043.637-.122.916-.157.28-.422.48-.73.566-.315.085-.63.042-.916-.122a1.171 1.171 0 0 1-.558-.73ZM29.052 18.457l-.05-.029a1.205 1.205 0 0 1-.508-.701 1.205 1.205 0 1 1 1.474.852c-.307.085-.63.035-.916-.122ZM13.556 27.686l-.036.036c-.35.35-.93.35-1.28 0a.905.905 0 1 1 1.546-.637.85.85 0 0 1-.23.6ZM27.692 12.257c.172.172.265.401.265.644a.904.904 0 1 1-1.81 0 .904.904 0 0 1 .908-.909c.244 0 .473.093.644.265h-.007ZM18.416 29.09c.158.278.2.6.122.916-.086.314-.28.572-.558.73-.28.157-.602.2-.917.122a1.208 1.208 0 0 1-.851-1.475c.086-.315.279-.573.558-.73.28-.158.601-.201.916-.122.315.086.566.286.73.565v-.007ZM21.515 10.918c-.157-.279-.2-.601-.121-.916.086-.315.279-.573.558-.73.186-.108.394-.158.601-.158.208 0 .208.015.315.043.315.086.573.28.73.566a1.202 1.202 0 0 1-1.353 1.768 1.163 1.163 0 0 1-.73-.565v-.008ZM23.326 28.395l.065.035c.315.2.536.509.637.874a1.497 1.497 0 0 1-1.06 1.84 1.49 1.49 0 0 1-1.145-.15c-.35-.201-.594-.523-.701-.917a1.494 1.494 0 0 1 .15-1.146 1.492 1.492 0 0 1 1.303-.751c.257 0 .515.071.751.2v.015ZM17.765 11.763a1.504 1.504 0 0 1-1.84-1.067 1.497 1.497 0 0 1 1.446-1.89c.666 0 1.274.444 1.453 1.117a1.497 1.497 0 0 1-1.06 1.84ZM12.883 14.784c1.045 0 1.89-.852 1.89-1.897a1.894 1.894 0 0 0-1.89-1.897c-1.045 0-1.89.852-1.89 1.897s.845 1.897 1.89 1.897Z"/></svg>