<?xml version="1.0" encoding="utf-8"?>
<!-- Generator: Adobe Illustrator 28.2.0, SVG Export Plug-In . SVG Version: 6.00 Build 0)  -->
<svg version="1.1" id="Layer_1" xmlns="http://www.w3.org/2000/svg" xmlns:xlink="http://www.w3.org/1999/xlink" x="0px" y="0px"
	 viewBox="0 0 400 63.5" enable-background="new 0 0 400 63.5" xml:space="preserve">
<path fill="#A00F13" d="M48.2,23.1C48.2,8.3,39.9,0,22.7,0H0v0.4c4.8,0,5.1,3.2,5.1,8.1V39C5.1,43.8,4.8,47,0,47v0.4h22.1
	C39,47.5,48.2,38.3,48.2,23.1 M33.9,23.6c0,15.1-2.8,22.9-10.4,22.9c-4.1,0-5.1-1.3-5.1-4.2V3.4c0-1.6,1-2.4,2.6-2.4h2.1
	C31.1,1.1,33.9,9.6,33.9,23.6"/>
<path fill="#A00F13" d="M68.4,12.5c-11.4,0-18.5,8.4-18.5,18.5c0,8.9,5.4,17.2,16.8,17.2c8.2,0,12.5-4.4,15.7-9.6L82,38.4
	c-2.2,2.9-5.5,4.2-9.1,4.2c-7.2,0-9.8-5.9-10-15.9h19.5C82.7,18.3,77.8,12.5,68.4,12.5 M71.7,25.7h-8.8c0-5.8,0.8-12.2,5.4-12.2
	C72.1,13.4,72.3,18.2,71.7,25.7"/>
<path fill="#A00F13" d="M108.8,12.5c-3.9,0-7.1,2.8-10.2,6.8v-6.7h-0.2l-16.2,2.9v0.4c2.4,0.8,3.6,1.9,3.6,6.1v18.7
	c0,4.2-0.2,6.4-3.1,6.4v0.4h19.1v-0.4c-2.9,0-3.1-2.2-3.1-6.4V20.2c1.1-0.5,2.2-0.8,3.4-0.8c2.4,0,4.9,1.3,6.9,3.8h0.4l2.5-10.2
	C110.7,12.7,109.7,12.5,108.8,12.5"/>
<path fill="#A00F13" d="M172.4,22.7c0-6.5-2.7-10.2-9.4-10.2c-5.1,0-9.5,3.1-12.9,6.3c-1-4.1-3.8-6.3-8.9-6.3
	c-4.9,0-9.2,2.9-12.5,6.1v-5.9h-0.3l-16.1,2.9v0.4c2.4,0.8,3.5,1.9,3.5,6.1v18.7c0,4.2-0.2,6.4-3.1,6.4v0.4h19.1v-0.4
	c-2.9,0-3.1-2.2-3.1-6.4V19.4c1.5-0.6,3.2-1,4.5-1c3.9,0,4.5,2.8,4.5,7.2v15.1c0,4.2-0.2,6.4-3.1,6.4v0.4h19.1v-0.4
	c-2.9,0-3.1-2.2-3.1-6.4v-18c0-1.2-0.1-2.3-0.3-3.2c1.5-0.6,3.5-1.1,4.8-1.1c3.9,0,4.5,2.8,4.5,7.2v15.1c0,4.2-0.2,6.4-3.1,6.4v0.4
	h19v-0.4c-2.9,0-3.1-2.2-3.1-6.4V22.7z"/>
<path fill="#A00F13" d="M211,42.3l-0.4-0.2c-0.4,0.5-1.2,1.4-2.6,1.4c-2.2,0-2.2-1.9-2.2-4.6V24.7c0-7.7-4.8-12.1-12.8-12.1
	c-7.8,0-14.1,4.1-16.4,10.9l0.4,0.2c1.8-3.2,5.4-6.1,9.8-6.1c6.5,0,6.5,6.5,6.5,8.4v3.3l-6.2,1.6c-8.1,2.1-11.9,5.4-11.9,10.4
	c0,4.4,3.3,7.2,8.3,7.2c4.1,0,8.2-2.3,10.4-5.3c0.3,2.4,1.5,5.3,6.9,5.3C206.7,48.3,209.9,44.4,211,42.3 M193.2,42.5
	c-0.8,0.7-1.8,1.1-2.6,1.1c-1.9,0-3.9-2-3.9-5.7c0-3.9,1-5.6,5.2-7.3l1.2-0.5L193.2,42.5L193.2,42.5z"/>
<path fill="#A00F13" d="M235.4,40.5c-1.5,1.2-3.7,2.2-5.4,2.2c-2.7,0-4.4-1.5-4.4-4.8V14.7h8.2l1.4-3.5h-9.5V0.1h-0.4
	c-4.5,7.2-9.1,10.1-15.1,13.1l-1,0.5v1.1h3.7v23.1c0,7.7,3.7,10.5,9.8,10.5c4.8,0,9.9-3.1,13.2-7.5L235.4,40.5z"/>
<path fill="#A00F13" d="M271.4,30.3c0-11-7-17.7-18.3-17.7c-11.1,0-18.4,7.2-18.4,18c0,11,7,17.7,18.3,17.7
	C264.1,48.3,271.4,41.1,271.4,30.3 M258,30.4c0,9-0.4,17-4.8,17s-4.9-8.4-4.9-17c0-9,0.4-17,4.8-17C257.4,13.4,258,21.8,258,30.4"/>
<path fill="#A00F13" d="M290.9,47.5v-0.4c-2.9,0-3.1-2.1-3.1-5.9V0h-0.3l-16.2,2.2v0.4c2.4,0.7,3.6,1.8,3.6,5.7v33
	c0,3.9-0.2,5.9-3.1,5.9v0.4H290.9z"/>
<path fill="#A00F13" d="M327.8,30.3c0-11-7-17.7-18.3-17.7c-11.1,0-18.4,7.2-18.4,18c0,11,7,17.7,18.3,17.7
	C320.5,48.3,327.8,41.1,327.8,30.3 M314.3,30.4c0,9-0.4,17-4.8,17c-4.4,0-4.9-8.4-4.9-17c0-9,0.4-17,4.8-17
	C313.7,13.4,314.3,21.8,314.3,30.4"/>
<path fill="#A00F13" d="M362.2,17.1l1.4-4.4L352.7,14c-2.2-0.9-5-1.4-8.2-1.4c-9.2,0-15.1,4.8-15.1,11.7c0,5,2.8,8.6,7.8,10.3
	c-4.4,2.4-7.4,4.6-7.4,7.9c0,3.5,2.1,6.1,7,6.1h13.2c4.7,0,7.3,1.9,7.3,5c0,4.4-3.9,6.8-9.1,6.8c-6.6,0-10.4-2.9-10.4-7.4
	c0-1.4,0.4-1.8,1.2-3.1h-0.3l-1.4,0.2c-4.2,0.6-8.8,1.8-8.8,6.2c0,3.1,3.6,6.8,13.2,6.8c11.2,0,22.8-6,22.8-14.7
	c0-5.7-4.5-9.3-12.2-9.3h-12.6c-2.5,0-3.2-0.8-3.2-1.9c0-1,0.5-1.6,1.6-2.4c1.9,0.6,4.1,0.8,6.5,0.8c9.2,0,15.1-4.7,15.1-11.7
	c0-3.1-1.1-5.6-2.9-7.5L362.2,17.1z M348.9,24.1c0,5.7-0.6,10.7-4.4,10.7c-3.8,0-4.5-4.9-4.5-10.7c0-5.7,0.7-10.7,4.5-10.7
	C348.2,13.4,348.9,18.3,348.9,24.1"/>
<path fill="#A00F13" d="M389.2,13.7c3.1,0.5,4.8,3.4,2.4,9.8l-3.7,9.8l-5.9-14c-1.1-2.6-1.2-5.4,1.9-5.6v-0.4h-19.5v0.4
	c2.4,0.4,3.4,3.1,5.2,7.4l12.2,28.1l-0.9,2.4c-2.9,7.5-6.7,7.3-13.5,1.6H367l-0.7,9.2c1.2,0.1,2.5,0.2,3.9,0.2
	c4.5,0,8.8-2.9,11.5-9.9l11.1-29c2.5-6.4,5-9.8,7.2-10.2v-0.4h-10.8V13.7z"/>
<rect x="232.4" y="51.1" fill="#4D4D4F" width="3" height="12.1"/>
<path fill="#4D4D4F" d="M262.1,63.1c0-0.6,0.1-9.2,0.1-9.2l-3.9,9.2h-2.7l-3.9-9.2c0,0,0.1,8.8,0.1,9.2h-2.9v-12h4.4l3.7,8.8
	l3.7-8.8h4.3v12C264.9,63.1,262.1,63.1,262.1,63.1z"/>
<polygon fill="#4D4D4F" points="278.2,63.1 278.2,51.1 289.8,51.1 289.8,53.3 281.3,53.3 281.3,56 289,56 289,58.1 281.3,58.1 
	281.3,61 289.8,61 289.8,63.1 "/>
<path fill="#4D4D4F" d="M305.5,59.4c0.7,1.5,2.6,1.9,4.1,1.9c0.6,0,3-0.1,3-1.6c0-1-1.2-1.2-2.6-1.4c-2.2-0.4-3.4-0.5-4.4-1
	c-0.5-0.2-1.9-1.1-1.9-2.9c0-2.6,2.6-3.8,5.7-3.8c3.5,0,5.4,1.2,6.3,2.9l-2.8,0.7c-0.6-1.2-2.3-1.5-3.5-1.5c-0.6,0-2.6,0.1-2.6,1.4
	c0,0.6,0.4,0.9,0.9,1.1c0.8,0.2,3,0.6,3.9,0.7c1.6,0.3,4.1,0.8,4.1,3.4c0,3.3-3.1,4.1-6.1,4.1c-3.5,0-5.4-1.2-6.6-3.4L305.5,59.4z"
	/>
<path fill="#4D4D4F" d="M318.3,52.4h0.1c0.2,0,0.3-0.1,0.3-0.5c0-0.3-0.1-0.5-0.3-0.5l0,0c-0.1,0-0.1,0.1-0.1,0.1V52.4z M319.5,53.5
	L319.5,53.5c-0.1,0.1-0.3,0.1-0.4,0.1c-0.3,0-0.3-0.1-0.6-0.9c-0.1-0.1-0.1-0.1-0.1-0.1l0,0v0.6c0,0.2,0,0.4,0.2,0.4v0.1h-0.9v-0.1
	c0.2,0,0.2-0.1,0.2-0.4v-1.3c0-0.2,0-0.4-0.2-0.4v-0.1h1c0.5,0,0.7,0.2,0.7,0.5c0,0.3-0.2,0.5-0.5,0.5c0.1,0.1,0.2,0.1,0.2,0.3
	C319.3,53.3,319.4,53.4,319.5,53.5 M320,52.5c0-0.9-0.6-1.6-1.6-1.6c-0.9,0-1.6,0.7-1.6,1.6c0,0.9,0.6,1.6,1.6,1.6
	C319.3,54.1,320,53.4,320,52.5 M320.1,52.5c0,1-0.7,1.8-1.7,1.8s-1.7-0.8-1.7-1.8s0.7-1.8,1.7-1.8C319.5,50.7,320.1,51.5,320.1,52.5
	"/>
<polygon fill="#4D4D4F" points="214.5,53.3 214.5,63.1 211.4,63.1 211.4,53.3 206.9,53.3 206.9,51.1 218.9,51.1 218.9,53.3 "/>
</svg>
