<?xml version="1.0" encoding="utf-8"?>
<!-- Generator: Adobe Illustrator 28.2.0, SVG Export Plug-In . SVG Version: 6.00 Build 0)  -->
<svg version="1.1" id="layer" xmlns="http://www.w3.org/2000/svg" xmlns:xlink="http://www.w3.org/1999/xlink" x="0px" y="0px"
	 viewBox="0 0 337 108" style="enable-background:new 0 0 337 108;" xml:space="preserve">
<style type="text/css">
	.st0{fill:#78BF3F;}
	.st1{fill:#0064A2;}
</style>
<path class="st0" d="M104.9,56h7.7v35.9h-7.7V56z M144,92V73.6c0-5.1-2.7-8.3-8.5-8.3c-4.2,0-7.4,2.1-9.1,4V66h-6.8v26h6.8V74.4
	c1.2-1.5,3.2-3,5.9-3c2.9,0,4.8,1.2,4.8,4.9V92 M148.5,88.6c2.7,2.6,7.1,4,11.6,4c7.2,0,11.3-3.5,11.3-8.3
	c0-10.5-15.5-7.2-15.5-11.1c0-1.5,1.6-2.6,4.1-2.6c3.2,0,6.2,1.4,7.7,3l2.7-4.9c-2.6-2.1-6.1-3.5-10.5-3.5c-6.9,0-10.7,3.8-10.7,8.2
	c0,10.2,15.4,6.8,15.4,11c0,1.6-1.4,2.7-4.4,2.7c-3.2,0-7.1-1.8-9-3.6L148.5,88.6 M176.4,92h6.8V66h-6.8V92z M175.7,59
	c0,2.2,1.8,4.1,4,4.1c2.3,0,4.1-1.8,4.1-4.1c0-2.3-1.8-4-4.1-4C177.6,55,175.7,56.8,175.7,59 M207.9,82.7c-1.2,1.6-3.6,3-5.8,3
	c-4,0-6.6-2.7-6.6-7.2c0-4.4,2.7-7.2,6.6-7.2c2.2,0,4.7,1.2,5.8,2.9V82.7 M189.5,98.6c3.3,2.9,6.8,3.9,11.2,3.9
	c6.4,0,14.1-2.4,14.1-12.3V66h-6.8v3.4c-2.1-2.7-4.9-4-8.1-4c-6.6,0-11.4,4.8-11.4,13.3c0,8.6,5,13.2,11.4,13.2c3.2,0,6-1.5,8.1-4
	v2.6c0,5.3-4,6.7-7.2,6.7c-3.2,0-6-0.9-8.2-3.2L189.5,98.6 M246,92V73.5c0-5.1-2.7-8.2-8.5-8.2c-4.3,0-7.4,2.1-9.1,4V56.1h-6.9V92
	h6.9V74.4c1.2-1.5,3.2-3,5.9-3c2.9,0,4.8,1.2,4.8,4.8V92 M254.2,85.5c0,4.7,2.6,7.2,7.3,7.2c2.9,0,4.7-0.7,5.7-1.6l-1.5-5.2
	c-0.4,0.4-1.3,0.8-2.4,0.8c-1.5,0-2.4-1.2-2.4-2.9V72h5.3V66h-5.3v-7.1h-6.8V66h-4.3v6h4.3L254.2,85.5"/>
<path class="st1" d="M126,34.9c0-2.1-1.6-3.9-4.4-3.9h-9.4v7.8h9.4C124.4,38.8,126,37.4,126,34.9 M125.4,21c0-2.1-1.6-3.6-4-3.6
	h-9.1v7.2h9.1C123.8,24.6,125.4,23.2,125.4,21 M104.9,45.3V11H123c6.5,0,9.9,4.2,9.9,8.7c0,4.2-2.7,7.2-5.9,7.9
	c3.7,0.5,6.6,4.1,6.6,8.4c0,5.2-3.4,9.3-10,9.3H104.9z M138.8,20.4h6.5v24.8h-6.5V20.4z M138.2,13.8c0-2.1,1.7-3.8,3.8-3.8
	c2.2,0,3.9,1.7,3.9,3.8s-1.7,3.9-3.9,3.9C139.9,17.8,138.2,16,138.2,13.8 M169.7,32.8c0-3.8-2.3-7.2-6.4-7.2s-6.4,3.4-6.4,7.2
	c0,3.9,2.3,7.2,6.4,7.2C167.4,40.1,169.7,36.7,169.7,32.8 M150.2,32.8c0-7.1,4.9-13,13.1-13c8.2,0,13.2,6,13.2,13s-4.9,13-13.2,13
	C155.2,45.9,150.2,39.9,150.2,32.8 M201.6,22c0-2.9-2.2-4.6-5.1-4.6h-7.7v9.2h7.7C199.4,26.6,201.6,24.8,201.6,22 M181.5,45.3V11h16
	c7.5,0,11.5,5,11.5,11.1c0,6-4.1,11-11.5,11h-8.7v12.3L181.5,45.3L181.5,45.3z M230.3,45.3V30.2c0-3.5-1.8-4.6-4.6-4.6
	c-2.6,0-4.6,1.4-5.7,2.9v16.7h-6.6V11h6.6v12.6c1.6-1.9,4.6-3.8,8.7-3.8c5.4,0,8.1,3,8.1,7.8v17.6 M258.2,39.3v-3.1
	c-1.1-1.4-3.1-2.2-5.3-2.2c-2.6,0-4.7,1.4-4.7,3.8c0,2.4,2.1,3.7,4.7,3.7C255.1,41.4,257.1,40.7,258.2,39.3 M258.2,45.3v-2.6
	c-1.7,2-4.6,3.2-7.9,3.2c-3.9,0-8.6-2.7-8.6-8.2c0-5.9,4.6-8,8.6-8c3.4,0,6.2,1.1,7.9,3.1v-3.1c0-2.5-2.1-4.2-5.4-4.2
	c-2.6,0-5.1,1-7.1,2.9l-2.6-4.6c3.1-2.7,6.9-3.9,10.8-3.9c5.7,0,10.9,2.3,10.9,9.4v16L258.2,45.3L258.2,45.3z M271.2,45.3V20.4h6.5
	v3.4c1.8-2.1,4.9-3.9,7.9-3.9v6.4c-0.5-0.1-1-0.2-1.8-0.2c-2.1,0-5,1.3-6.1,2.8v16.4 M320.5,45.3V29.6c0-2.3-1-3.9-3.7-3.9
	c-2.3,0-4.2,1.6-5.1,2.9v16.7h-6.6V29.6c0-2.3-1-3.9-3.7-3.9c-2.3,0-4.2,1.6-5.1,2.9v16.7h-6.6V20.4h6.5v3.2
	c1.1-1.4,4.3-3.8,8.1-3.8c3.6,0,6,1.7,6.9,4.5c1.4-2.2,4.7-4.5,8.6-4.5c4.6,0,7.3,2.4,7.3,7.5v17.9"/>
<rect x="70.3" y="32.6" class="st1" width="5.2" height="35.7"/>
<rect x="32.6" y="25.4" class="st1" width="35.7" height="5.2"/>
<path class="st1" d="M83.6,83.6H62.3V62.3h21.3V83.6z M55,90.9h35.9V55H55V90.9z"/>
<path class="st0" d="M38.6,83.6H17.3V62.3h21.3V83.6z M10,90.9h35.9V55H10V90.9z"/>
<path class="st1" d="M83.6,38.6H62.3V17.4h21.3V38.6z M55,45.9h35.9V10H55V45.9z"/>
<path class="st1" d="M38.6,38.6H17.3V17.4h21.3V38.6z M10,45.9h35.9V10H10V45.9z"/>
<rect x="32.6" y="70.3" class="st1" width="35.7" height="5.2"/>
<rect x="25.4" y="32.6" class="st1" width="5.2" height="35.7"/>
</svg>
