<?xml version="1.0" encoding="utf-8"?>
<!-- Generator: Adobe Illustrator 28.2.0, SVG Export Plug-In . SVG Version: 6.00 Build 0)  -->
<svg version="1.1" id="Layer_1" xmlns="http://www.w3.org/2000/svg" xmlns:xlink="http://www.w3.org/1999/xlink" x="0px" y="0px"
	 viewBox="0 0 400 132.1" enable-background="new 0 0 400 132.1" xml:space="preserve">
<path d="M390.7,0.8h-68.8c-7,0-9.3,2.5-9.3,10.1V122c0,7,2.5,9.3,10.1,9.3h7.2c7.6,0,10.1-2.4,10.1-9.3V78.3h42.7
	c7,0,9.3-2.5,9.3-10.1v-4.9c0-7.6-2.4-10.1-9.3-10.1H340V27.1h50.7c7,0,9.3-2.5,9.3-10.1v-6.1C400,3.3,397.7,0.8,390.7,0.8
	L390.7,0.8z M286.6,105h-32.8c-7.8,0-11.9-1.2-14.6-3.7c-3.1-2.9-4.1-7-4.1-14.6V10.9c0-7.6-2.4-10.1-9.3-10.1H217
	c-7,0-9.3,2.5-9.3,10.1v78.6c0,14.2,2.7,23.8,9.1,30.8c7.2,7.6,17.6,11.1,34.3,11.1h35.5c7,0,9.3-2.5,9.3-10.1v-6.1
	C295.9,107.5,293.6,105,286.6,105z M185.1,105h-35.9c-7.8,0-11.9-1.2-14.6-3.7c-3.1-2.9-4.1-7-4.1-14.6v-8.4h45
	c7,0,9.3-2.5,9.3-10.1v-4.9c0-7.6-2.4-10.1-9.3-10.1h-45V27.1h53c7,0,9.3-2.5,9.3-10.1v-6.1c0-7.6-2.4-10.1-9.3-10.1h-71.1
	c-7,0-9.3,2.5-9.3,10.1v78.6c0,14.2,2.7,23.8,9.1,30.8c7.2,7.6,17.6,11.1,34.3,11.1h38.6c7,0,9.3-2.5,9.3-10.1v-6.1
	C194.5,107.5,192.2,105,185.1,105z M28.9,38.2c0-7,7.8-11.9,20.6-11.9c11.9,0,20.8,2.5,26.9,2.5c4.3,0,5.6-2.4,5.6-7v-8.5
	c0-6.2-0.8-8.4-7.6-10.1C67.3,1.2,57.4,0,47.8,0C21.9,0,0.4,15.2,0.4,40.1c0,43.1,61,34.3,61,53c0,7.4-7.8,12.7-23.2,12.7
	c-8.6,0-21.1-2.2-28.6-4.3c-2.2-0.6-3.3-0.8-4.5-0.8c-3.7,0-5.1,2.4-5.1,6.8v10.3c0,5.6,1.5,7.4,7.8,9.6c8.6,2.9,22.2,4.7,32.8,4.7
	c32,0,49.1-16.2,49.1-40.8C89.8,48.7,28.9,57.3,28.9,38.2z"/>
</svg>
