<?xml version="1.0" encoding="utf-8"?>
<!-- Generator: Adobe Illustrator 28.2.0, SVG Export Plug-In . SVG Version: 6.00 Build 0)  -->
<svg version="1.1" id="Layer_1" xmlns="http://www.w3.org/2000/svg" xmlns:xlink="http://www.w3.org/1999/xlink" x="0px" y="0px"
	 viewBox="0 0 340 72.6" enable-background="new 0 0 340 72.6" xml:space="preserve">
<g>
	<path d="M84.3,48.9c0,13.3-8.7,22.9-25.8,22.9h-6.6c-1.3,0-2.3-1.1-2.3-2.4v-41c0.1-1.3,1-2.3,2.3-2.3h6.7
		C76.1,26.1,84.3,35.4,84.3,48.9 M77.3,48.9c0-9.5-5.8-16.4-18.3-16.4h-2.6v32.8H59C70.8,65.3,77.3,58.6,77.3,48.9"/>
	<path d="M112,64.8c0.3-0.2,0.7-0.3,1-0.3c0.7,0,1.2,0.4,1.5,0.9l1.2,2.2c0.1,0.2,0.2,0.6,0.2,1c0,0.6-0.2,1-0.8,1.4
		c-4.1,2.2-8.6,2.6-10.9,2.6c-8.7,0-14.3-6-14.3-15.2c0-9.2,5.6-15.2,13.9-15.2c7.1,0,11.5,3.8,13.1,10c0.2,0.6,0.4,1.9,0.4,2.5
		c0,3.2-1.8,5-4.3,5H97c0.4,4.6,3.3,7,7.6,7C106.7,66.7,109.5,66.3,112,64.8 M110.9,54.2c-0.9-3.5-3.2-6-6.7-6c-4.1,0-6.2,2.9-6.7,6
		H110.9z"/>
	<path d="M134.3,48.1c-0.5-0.1-1.3-0.2-1.9-0.2c-1.5,0-2.8,0.5-2.8,2.6V70c0,0.9-0.9,1.8-1.8,1.8h-3.1c-1,0-1.8-0.8-1.8-1.8V50.4
		c0-5.3,3.8-8.2,9.3-8.2c1.1,0,2.3,0.1,3.5,0.4c0.7,0.2,1.2,0.7,1.2,1.5c0,0.1-0.1,0.6-0.1,0.9l-0.5,2.3c-0.1,0.7-0.4,1.2-1,1.2
		C135.1,48.4,134.6,48.2,134.3,48.1"/>
	<path d="M178.5,71.8h-3.2c-1,0-1.8-0.8-1.8-1.7V55.8c0-5.6-1.3-7.6-4.4-7.6c-3.7,0-5.3,2.7-5.3,8.8V70c0,1-0.8,1.8-1.8,1.8h-3.1
		c-1,0-1.8-0.8-1.8-1.8V55.9c0-5.2-1.5-7.7-4.5-7.7c-3.8,0-5.4,2.7-5.4,8.8V70c0,1-0.8,1.8-1.8,1.8h-3.1c-1,0-1.8-0.8-1.8-1.8V44.8
		c0-1,0.8-1.8,1.8-1.8h3.1c1,0,1.8,0.8,1.8,1.8v0.8c1.6-2,4.1-3.4,7-3.4c3.3,0,5.9,1.4,7.7,4.3c2.1-2.9,4.9-4.3,8.5-4.3
		c6.5,0,9.8,3.9,9.8,11.8V70C180.2,71,179.5,71.8,178.5,71.8"/>
	<path d="M185.6,26h4c0.9,0,1.5,0.4,1.7,1.2l9.5,31l9.9-30.3c0.4-1.1,1.3-1.9,2.3-1.9h2.3c1,0,2,0.8,2.3,1.8l9.9,30.4l9.5-31
		c0.2-0.6,0.7-1.2,1.6-1.2h3.7c1,0,1.8,0.7,1.8,1.8c0,0.4-0.2,0.9-0.2,1l-13.1,41c-0.4,1.1-1.2,1.8-2.2,1.9h-2.4
		c-1-0.1-1.9-0.8-2.3-1.8l-9.9-30.4l-9.9,30.3c-0.4,1.2-1,1.9-2.3,1.9h-2.6c-1.3,0-2-0.8-2.3-1.8L184,28.8c-0.1-0.4-0.2-0.7-0.2-1
		C183.9,26.8,184.7,26,185.6,26"/>
	<path d="M259,42.2c8.7,0,15.4,6.7,15.4,15.2c0,8.7-6.6,15.2-15.4,15.2c-8.7,0-15.4-6.3-15.4-15.2C243.6,48.9,250.2,42.2,259,42.2
		 M259,66.7c5.2,0,8.6-3.7,8.6-9.3c0-5.7-3.4-9.3-8.6-9.3c-5.1,0-8.5,3.9-8.5,9.3C250.5,63.2,253.9,66.7,259,66.7"/>
	<path d="M291.9,48.1c-0.6-0.1-1.3-0.2-1.9-0.2c-1.5,0-2.8,0.5-2.8,2.6V70c0,0.9-0.9,1.8-1.8,1.8h-3.1c-1,0-1.8-0.8-1.8-1.8V50.4
		c0-5.3,3.8-8.2,9.3-8.2c1.1,0,2.3,0.1,3.5,0.4c0.7,0.2,1.2,0.7,1.2,1.5c0,0.1-0.1,0.6-0.1,0.9l-0.5,2.3c-0.1,0.7-0.4,1.2-1,1.2
		C292.7,48.4,292.2,48.2,291.9,48.1"/>
	<path d="M304.9,70c0,1-0.8,1.8-1.8,1.8h-3.1c-1,0-1.8-0.8-1.8-1.8V30.8c0-1,0.9-1.8,1.8-1.8h3.1c1,0,1.8,0.8,1.8,1.8V70z"/>
	<path d="M340,30.8V70c0,1-0.8,1.8-1.8,1.8h-3.1c-1,0-1.8-0.8-1.8-1.8v-1.2c-2.6,2.6-5.6,3.8-8.9,3.8c-8.1,0-13.7-6.6-13.7-15.2
		c0-8.4,5.7-15.2,13.5-15.2c3.4,0,6.4,1.5,9.1,4.2V30.8c0-1,0.8-1.8,1.8-1.8h3.1C339.2,29,340,29.8,340,30.8 M333.7,57.4
		c0-5.4-3.2-9.1-8.2-9.1c-4.6,0-8,4.1-8,9.1c0,5.6,3.4,9.3,7.9,9.3C330.5,66.7,333.7,62.7,333.7,57.4"/>
</g>
<g>
	<path fill="#0076BB" d="M41.1,19c1.1,0,1.9,0.9,1.9,1.9c0,1.1-0.9,1.9-1.9,1.9c-1.1,0-1.9-0.9-1.9-1.9C39.2,19.8,40,19,41.1,19"/>
	<path fill="#0076BB" d="M40.4,24.2c1,0,1.9,0.8,1.9,1.9c0,1-0.8,1.9-1.9,1.9c-1,0-1.9-0.8-1.9-1.9C38.5,25,39.4,24.2,40.4,24.2"/>
	<path fill="#0076BB" d="M38.4,29c1,0,1.8,0.8,1.8,1.8c0,1-0.8,1.8-1.8,1.8c-1,0-1.8-0.8-1.8-1.8C36.6,29.8,37.4,29,38.4,29"/>
	<path fill="#0076BB" d="M35.3,33.2c1,0,1.8,0.8,1.8,1.8c0,1-0.8,1.8-1.8,1.8c-1,0-1.8-0.8-1.8-1.8C33.5,34,34.3,33.2,35.3,33.2"/>
	<path fill="#0076BB" d="M31.1,36.4c0.9,0,1.7,0.8,1.7,1.7c0,0.9-0.8,1.7-1.7,1.7s-1.7-0.8-1.7-1.7C29.4,37.2,30.2,36.4,31.1,36.4"
		/>
	<path fill="#0076BB" d="M26.3,38.5c0.9,0,1.7,0.7,1.7,1.7c0,0.9-0.7,1.7-1.7,1.7c-0.9,0-1.7-0.7-1.7-1.7
		C24.7,39.2,25.4,38.5,26.3,38.5"/>
	<path fill="#0076BB" d="M21.2,39.2c0.9,0,1.6,0.7,1.6,1.6c0,0.9-0.7,1.6-1.6,1.6c-0.9,0-1.6-0.7-1.6-1.6
		C19.6,39.9,20.3,39.2,21.2,39.2"/>
	<path fill="#0076BB" d="M16,38.6c0.9,0,1.6,0.7,1.6,1.6c0,0.9-0.7,1.6-1.6,1.6c-0.9,0-1.6-0.7-1.6-1.6C14.5,39.3,15.2,38.6,16,38.6
		"/>
	<path fill="#0076BB" d="M11.3,36.6c0.8,0,1.5,0.7,1.5,1.5c0,0.8-0.7,1.5-1.5,1.5c-0.8,0-1.5-0.7-1.5-1.5
		C9.7,37.3,10.4,36.6,11.3,36.6"/>
	<path fill="#0076BB" d="M7.1,33.5c0.8,0,1.5,0.7,1.5,1.5c0,0.8-0.7,1.5-1.5,1.5c-0.8,0-1.5-0.7-1.5-1.5C5.7,34.2,6.3,33.5,7.1,33.5
		"/>
	<path fill="#0076BB" d="M4,29.4c0.8,0,1.4,0.6,1.4,1.4c0,0.8-0.6,1.4-1.4,1.4c-0.8,0-1.4-0.6-1.4-1.4C2.6,30.1,3.2,29.4,4,29.4"/>
	<path fill="#0076BB" d="M2,24.7c0.8,0,1.4,0.6,1.4,1.4c0,0.8-0.6,1.4-1.4,1.4c-0.8,0-1.4-0.6-1.4-1.4C0.6,25.3,1.2,24.7,2,24.7"/>
	<path fill="#0076BB" d="M1.3,19.6c0.7,0,1.3,0.6,1.3,1.3c0,0.7-0.6,1.3-1.3,1.3c-0.7,0-1.3-0.6-1.3-1.3C0,20.2,0.6,19.6,1.3,19.6"
		/>
	<path fill="#0076BB" d="M2,14.5c0.7,0,1.3,0.6,1.3,1.3S2.7,17,2,17c-0.7,0-1.3-0.6-1.3-1.3S1.3,14.5,2,14.5"/>
	<path fill="#0076BB" d="M4,9.7c0.7,0,1.2,0.5,1.2,1.2c0,0.7-0.5,1.2-1.2,1.2c-0.7,0-1.2-0.5-1.2-1.2C2.8,10.3,3.3,9.7,4,9.7"/>
	<path fill="#0076BB" d="M7.1,5.7c0.6,0,1.2,0.5,1.2,1.2C8.3,7.5,7.8,8,7.1,8C6.5,8,6,7.5,6,6.8C6,6.2,6.5,5.7,7.1,5.7"/>
	<path fill="#0076BB" d="M11.3,2.6c0.6,0,1.1,0.5,1.1,1.1c0,0.6-0.5,1.1-1.1,1.1c-0.6,0-1.1-0.5-1.1-1.1C10.1,3.1,10.6,2.6,11.3,2.6
		"/>
	<path fill="#0076BB" d="M16,0.6c0.6,0,1.1,0.5,1.1,1.1c0,0.6-0.5,1.1-1.1,1.1c-0.6,0-1.1-0.5-1.1-1.1C15,1.1,15.5,0.6,16,0.6"/>
	<path fill="#0076BB" d="M21.2,0c0.6,0,1,0.5,1,1c0,0.6-0.5,1-1,1c-0.6,0-1-0.5-1-1C20.2,0.5,20.6,0,21.2,0"/>
	<path fill="#0076BB" d="M26.3,0.7c0.5,0,1,0.4,1,1c0,0.5-0.4,1-1,1c-0.5,0-1-0.4-1-1C25.4,1.2,25.8,0.7,26.3,0.7"/>
	<path fill="#0076BB" d="M31.1,2.8c0.5,0,0.9,0.4,0.9,0.9c0,0.5-0.4,0.9-0.9,0.9c-0.5,0-0.9-0.4-0.9-0.9C30.2,3.2,30.6,2.8,31.1,2.8
		"/>
	<path fill="#0076BB" d="M35.3,6c0.5,0,0.9,0.4,0.9,0.9c0,0.5-0.4,0.9-0.9,0.9c-0.5,0-0.9-0.4-0.9-0.9C34.4,6.4,34.8,6,35.3,6"/>
	<path fill="#0076BB" d="M38.4,10.1c0.4,0,0.8,0.4,0.8,0.8c0,0.4-0.4,0.8-0.8,0.8c-0.4,0-0.8-0.4-0.8-0.8
		C37.6,10.5,38,10.1,38.4,10.1"/>
	<path fill="#0076BB" d="M40.4,15c0.4,0,0.8,0.3,0.8,0.8c0,0.4-0.3,0.8-0.8,0.8c-0.4,0-0.8-0.3-0.8-0.8C39.7,15.3,40,15,40.4,15"/>
	<path d="M30.5,24H30v-8.2h0.5c1.5,0,2.6,0.4,3.4,1c0.8,0.8,1.3,1.8,1.3,3.1c0,1.2-0.4,2.3-1.3,3c-0.4,0.4-0.9,0.7-1.4,0.8
		C32,24,31.3,24,30.5,24 M35.4,15.4c-0.6-0.6-1.3-1-2.1-1.2c-0.7-0.2-1.7-0.4-2.9-0.4h-1.7c-0.4,0-0.7,0.3-0.8,0.8l0,10.7
		c0,0.4,0.3,0.8,0.7,0.8h1.7c1.2,0,2.2-0.1,2.8-0.3c0.7-0.2,1.4-0.6,2.1-1.2c1.3-1.2,2-2.7,2-4.6C37.3,18.1,36.6,16.5,35.4,15.4"/>
	<path d="M19.7,21.1l1.6-3.9l1.6,3.9H19.7z M8.9,21.1l1.6-3.9l1.6,3.9H8.9z M6.7,25.9L6.7,25.9z M26.9,25.3L26.9,25.3
		c0-0.1,0-0.1-0.1-0.2l-4.5-10.9c-0.1-0.3-0.4-0.4-0.7-0.5l-0.8,0c-0.3,0-0.5,0.2-0.7,0.5l-4.3,10.6l-4.3-10.6
		c-0.1-0.3-0.4-0.4-0.7-0.5l-0.8,0c-0.3,0-0.5,0.2-0.7,0.5L4.9,25.1c0,0.1-0.1,0.1-0.1,0.2c0,0,0,0.1,0,0.1c0,0,0,0.1,0,0.1
		c0,0,0,0.1,0,0.1c0,0,0,0.1,0.1,0.1c0,0,0,0.1,0.1,0.1C5.1,26,5.3,26,5.4,26h1.1c0,0,0.1,0,0.1,0l0-0.1L6.7,26c0,0,0,0,0.1,0l0,0
		c0,0,0,0,0.1,0c0,0,0,0,0.1,0c0,0,0,0,0,0c0,0,0,0,0,0c0,0,0,0,0.1-0.1c0,0,0,0,0,0l0,0l1-2.6h4.7l1,2.5l0,0.1l0,0c0,0,0,0,0,0
		c0,0,0,0,0.1,0.1c0,0,0,0,0,0c0,0,0,0,0,0c0,0,0,0,0.1,0c0,0,0,0,0.1,0l0.1,0c0,0,0.1,0,0.1,0h3c0,0,0.1,0,0.1,0l0,0l0.1,0
		c0,0,0,0,0.1,0c0,0,0,0,0.1,0c0,0,0,0,0,0c0,0,0,0,0,0c0,0,0,0,0.1-0.1c0,0,0,0,0,0l0,0l1-2.6h4.7l1,2.5l0,0.1l0,0c0,0,0,0,0,0
		c0,0,0,0,0.1,0.1c0,0,0,0,0,0c0,0,0,0,0,0c0,0,0,0,0.1,0c0,0,0,0,0.1,0l0.1,0c0,0,0.1,0,0.1,0h1.1c0.2,0,0.3-0.1,0.4-0.2
		c0,0,0-0.1,0.1-0.1c0,0,0-0.1,0.1-0.1c0,0,0-0.1,0-0.1c0,0,0-0.1,0-0.1C26.9,25.4,26.9,25.4,26.9,25.3"/>
</g>
</svg>
