<?xml version="1.0" encoding="UTF-8" standalone="no"?>
<!-- Created with Inkscape (http://www.inkscape.org/) -->

<svg
   width="264.59006mm"
   height="76.49453mm"
   viewBox="0 0 264.59005 76.49453"
   version="1.1"
   id="svg10157"
   inkscape:version="1.1 (c68e22c387, 2021-05-23)"
   sodipodi:docname="CBS_(2020).svg"
   xmlns:inkscape="http://www.inkscape.org/namespaces/inkscape"
   xmlns:sodipodi="http://sodipodi.sourceforge.net/DTD/sodipodi-0.dtd"
   xmlns="http://www.w3.org/2000/svg"
   xmlns:svg="http://www.w3.org/2000/svg">
  <sodipodi:namedview
     id="namedview10159"
     pagecolor="#505050"
     bordercolor="#eeeeee"
     borderopacity="1"
     inkscape:pageshadow="0"
     inkscape:pageopacity="0"
     inkscape:pagecheckerboard="0"
     inkscape:document-units="mm"
     showgrid="false"
     inkscape:zoom="1.1794893"
     inkscape:cx="400.59709"
     inkscape:cy="98.771558"
     inkscape:window-width="1600"
     inkscape:window-height="847"
     inkscape:window-x="-8"
     inkscape:window-y="-8"
     inkscape:window-maximized="1"
     inkscape:current-layer="svg10157"
     inkscape:snap-bbox="true"
     inkscape:bbox-paths="true"
     inkscape:bbox-nodes="true"
     inkscape:snap-bbox-edge-midpoints="true"
     inkscape:snap-bbox-midpoints="true" />
  <defs
     id="defs10154" />
  <g
     id="g12075"
     style="fill:#000000;stroke:none">
    <path
       d="m 140.10862,50.518934 9.81734,9.817339 q -3.04338,3.730598 -7.36299,6.87213 -10.01369,6.872155 -22.08902,6.872155 -15.80591,0 -26.604986,-10.504555 -10.700901,-10.504554 -10.700901,-25.328749 0,-14.82417 10.700901,-25.328724 10.799076,-10.5045572 26.604986,-10.5045572 12.07533,0 21.69632,6.8721324 4.12327,2.9452088 7.26483,6.8721548 l -9.81734,9.817339 q -1.96348,-2.552515 -5.00683,-4.908682 -6.47946,-4.908657 -14.13698,-4.908657 -9.2283,0 -15.70774,6.479435 -6.381283,6.381262 -6.381283,15.609559 0,9.228297 6.381283,15.707757 6.47944,6.381262 15.70774,6.381262 7.75569,0 14.62784,-4.908657 3.14154,-2.356167 5.00683,-4.908682 z"
       style="font-weight:bold;font-size:39.9999px;line-height:1.25;font-family:'TT Norms Pro';-inkscape-font-specification:'TT Norms Pro Bold';letter-spacing:-1.94044px;baseline-shift:baseline;fill:#000000;stroke:none;stroke-width:2.45434"
       id="path12014" />
    <path
       d="M 155.96244,72.607953 V 3.8865748 h 28.96115 q 10.01368,0 16.00225,5.3013567 6.08677,5.2032025 6.08677,12.8607215 0,6.675783 -4.71234,11.19177 -2.25799,2.061647 -4.61416,3.043358 3.43608,0.981737 6.38129,3.337904 6.38126,5.39955 6.38126,13.35159 0,8.246561 -6.47944,13.940607 -6.38128,5.694071 -17.08216,5.694071 z m 14.726,-12.762548 h 15.21688 q 4.31962,0 6.77396,-2.257994 2.55252,-2.257969 2.55252,-6.086741 0,-3.828771 -2.55252,-6.08674 -2.45434,-2.257994 -6.77396,-2.257994 h -15.21688 z m 0,-29.452017 h 13.25341 q 3.6324,0 5.69405,-1.865299 2.15982,-1.963473 2.15982,-5.006831 0,-3.043383 -2.15982,-4.908682 -2.06165,-1.963473 -5.69405,-1.963473 h -13.25341 z"
       style="font-weight:bold;font-size:39.9999px;line-height:1.25;font-family:'TT Norms Pro';-inkscape-font-specification:'TT Norms Pro Bold';letter-spacing:-1.94044px;baseline-shift:baseline;fill:#000000;stroke:none;stroke-width:2.45434"
       id="path12016" />
    <path
       d="m 212.0673,63.281482 9.81734,-9.817339 q 1.96347,2.257994 4.22144,3.730574 5.39955,3.632424 11.97716,3.632424 5.59589,0 8.44291,-2.15982 2.84703,-2.15982 2.84703,-5.694046 0,-3.141556 -3.53423,-5.203203 -3.53425,-2.159795 -8.63928,-3.730573 -5.00683,-1.570778 -10.11186,-3.730598 -5.00683,-2.15982 -8.54108,-6.57761 -3.53422,-4.515987 -3.53422,-11.191769 0,-8.442909 6.77395,-14.2351532 6.87213,-5.890396 18.26025,-5.890396 9.62099,0 17.27851,4.7123124 3.04338,1.8652991 5.79225,4.6141608 l -9.81734,9.817339 q -1.8653,-1.865299 -3.43608,-2.945209 -4.51596,-2.945184 -9.32647,-2.945184 -10.30821,0 -10.30821,6.87213 0,3.141556 3.53425,5.301351 3.53423,2.061647 8.54108,3.632425 5.10501,1.570778 10.11186,3.730598 5.10501,2.159795 8.63926,6.675783 3.53425,4.417789 3.53425,11.093596 0,8.835603 -7.16668,15.020517 -7.06847,6.086766 -18.84928,6.086766 -11.28995,0 -19.9292,-5.39955 -3.92692,-2.356168 -6.57761,-5.399526 z"
       style="font-weight:bold;font-size:39.9999px;line-height:1.25;font-family:'TT Norms Pro';-inkscape-font-specification:'TT Norms Pro Bold';letter-spacing:-1.94044px;baseline-shift:baseline;fill:#000000;stroke:none;stroke-width:2.45434"
       id="path12018" />
    <path
       id="path440"
       style="fill:#000000;stroke:none;stroke-width:0.0764945"
       d="m 38.250108,17.977712 c -11.20231,4.2e-5 -20.276273,9.077885 -20.276273,20.269113 0,11.194283 9.073963,20.266414 20.276273,20.266414 11.194894,0 20.267622,-9.072202 20.267622,-20.266414 0,-11.191228 -9.072728,-20.269156 -20.267622,-20.269113 z"
       sodipodi:nodetypes="sssss" />
    <path
       id="path442"
       style="fill:#000000;stroke:none;stroke-width:0.0764945"
       d="M 38.250108,2.062648e-6 C 17.123695,2.062648e-6 3.694949e-6,17.126308 3.694949e-6,38.246825 3.694949e-6,59.373238 17.123695,76.494529 38.250108,76.494529 c 21.11394,0 38.244422,-17.121291 38.244422,-38.247704 C 76.49453,17.126308 59.364048,2.062648e-6 38.250108,2.062648e-6 Z M 38.250265,15.44278 c 16.684443,0 30.129269,10.15797 35.924035,22.804045 C 68.379534,50.891451 54.934708,61.055488 38.250265,61.055488 21.558931,61.055488 8.1067881,50.891451 2.3091952,38.246825 8.1068591,25.600821 21.558931,15.44278 38.250265,15.44278 Z" />
  </g>
</svg>
