<svg id="Layer_1" data-name="Layer 1" xmlns="http://www.w3.org/2000/svg" width="1867.477" height="368.85" viewBox="0 0 1867.477 368.85"><defs><style>.cls-1{fill:#114582;}.cls-2{fill:#fff;}</style></defs><path id="bg" class="cls-1" d="M748.51,38.083C748.51,3.987,721.222,0,721.222,0H0S.005,303.494.005,320.706c0,34.1,27.285,38.085,27.285,38.085H748.513S748.51,54.72,748.51,38.083Z"/><path id="atologist" d="M1833.558,104.781a5.094,5.094,0,0,1,1.122-1.621,5.244,5.244,0,0,1,1.648-1.077,5.161,5.161,0,0,1,6.735,2.7,4.947,4.947,0,0,1,.411,2.02,5.06,5.06,0,0,1-.411,2.053,5.19,5.19,0,0,1-1.114,1.633,5.007,5.007,0,0,1-1.631,1.079,5.374,5.374,0,0,1-3.99,0,5.065,5.065,0,0,1-1.648-1.079,5.073,5.073,0,0,1-1.533-3.686A5.014,5.014,0,0,1,1833.558,104.781Zm.847,3.771a4.288,4.288,0,0,0,.892,1.393,4.169,4.169,0,0,0,3.029,1.264,4.049,4.049,0,0,0,1.66-.337,4.1,4.1,0,0,0,1.34-.927,4.3,4.3,0,0,0,.9-1.393,4.681,4.681,0,0,0,.321-1.751,4.558,4.558,0,0,0-.321-1.718,4.276,4.276,0,0,0-.9-1.381,4.185,4.185,0,0,0-1.34-.918,4.052,4.052,0,0,0-1.66-.337,4.152,4.152,0,0,0-1.681.337,4.127,4.127,0,0,0-2.24,2.3,4.556,4.556,0,0,0-.325,1.718A4.686,4.686,0,0,0,1834.405,108.552Zm4.237-4.732a2.465,2.465,0,0,1,1.586.425,1.59,1.59,0,0,1,.514,1.292,1.456,1.456,0,0,1-.452,1.188,2.043,2.043,0,0,1-1.126.446l1.718,2.651h-1l-1.635-2.583h-.99v2.583h-.933v-6Zm-.411,2.665c.21,0,.407-.008.6-.021a1.529,1.529,0,0,0,.5-.117.764.764,0,0,0,.349-.3,1.014,1.014,0,0,0,.131-.555.869.869,0,0,0-.115-.481.794.794,0,0,0-.3-.275,1.389,1.389,0,0,0-.427-.132,3.3,3.3,0,0,0-.473-.033h-1.237v1.909h.979ZM912.75,195.573c0-20.262,0-42.621-14.676-58.342-13.271-15.372-35.283-17.468-54.5-17.468-32.49,0-71.614,11.53-76.511,48.56l25.506,4.189c4.887-24.454,26.2-31.44,48.56-31.44,31.441,0,45.066,11.88,45.066,42.974v7.686H863.138c-22,0-48.209,1.042-68.12,10.478-19.563,8.735-32.837,27.944-32.837,49.262,0,35.279,28.642,53.8,61.831,53.8,28.3,0,49.612-11.183,62.188-36.686l3.143,33.185h27.249c-3.494-11.53-3.842-24.454-3.842-37.377V195.573Zm-26.551,28.3c0,31.441-22.707,60.087-56.246,60.087-19.564,0-38.429-9.089-38.429-31.094,0-36.682,44.014-40.524,71.968-40.524H886.2Zm84.882,27.944V144.565h39.478V122.908H971.141v-3.7c0-.421-.052-.784-.061-1.2v-.888l-.045,0c-1.123-32.108-27.183-36-27.183-36l-.02,20.992v20.786H912.391v21.657h31.442V247.281c0,35.283,11.527,57.993,50.3,57.993l26.2-2.1V281.511l-20.96,1.747C977.023,283.257,971.081,272.432,971.081,251.816ZM1093,119.764c-53.45,0-81.4,42.62-81.4,91.876,0,46.816,23.755,93.633,76.858,93.633,53.8,0,82.447-43.67,82.447-93.282C1170.91,165.181,1145.057,119.764,1093,119.764Zm38.78,137.293c-8.387,16.07-22.71,25.5-40.878,25.5a44.764,44.764,0,0,1-38.776-22.359c-7.683-13.972-10.131-32.49-10.131-48.563,0-14.32,2.1-31.438,8.735-44.362a44.907,44.907,0,0,1,40.173-25.157,46.212,46.212,0,0,1,38.429,20.962c9.086,14.326,11.18,31.789,11.18,48.557C1140.514,227.018,1139.114,243.085,1131.783,257.057Zm181.3-137.293c-53.45,0-81.4,42.62-81.4,91.876,0,46.816,23.752,93.633,76.855,93.633,53.8,0,82.447-43.67,82.447-93.282C1390.984,165.181,1365.134,119.764,1313.08,119.764Zm38.78,137.293c-8.387,16.07-22.713,25.5-40.877,25.5A44.774,44.774,0,0,1,1272.2,260.2c-7.679-13.972-10.131-32.49-10.131-48.563,0-14.32,2.1-31.438,8.735-44.362a44.914,44.914,0,0,1,40.176-25.157,46.209,46.209,0,0,1,38.426,20.962c9.089,14.326,11.18,31.789,11.18,48.557C1360.588,227.018,1359.192,243.085,1351.86,257.057Zm183.405,21.661c-13.972-5.241-36.689-5.591-52.054-6.286-12.579-.7-29.7,0-41.933-2.793-7.682-1.753-13.268-6.643-13.268-15.031,0-9.082,10.485-16.414,18.872-16.414,6.63,0,16.067,2.792,24.093,2.792,16.067,0,32.136-3.838,45.076-13.624,13.267-10.482,22.7-26.9,22.7-44.365a65.32,65.32,0,0,0-17.118-43.668c2.786-18.518,15.365-20.262,31.432-20.262h2.8l-.344-22.01-6.994-.348c-24.11,0-36.329,5.588-40.868,30.74a85.447,85.447,0,0,0-35.984-7.686c-35.633,0-68.124,22.009-68.124,60.438,0,19.209,8.033,34.932,23.055,46.816-14.323,6.631-24.451,14.313-24.451,31.782,0,13.277,6.981,21.31,17.122,27.951-16.774,5.942-26.9,17.469-26.9,35.978,0,19.567,13.278,32.146,30.393,39.134,15.372,6.29,35.633,6.988,52.054,6.988,34.234,0,87.681-5.939,87.681-51.008A41.865,41.865,0,0,0,1535.265,278.718Zm-63.584-137.293c21.652,0,39.475,16.417,39.475,38.777,0,23.752-15.725,39.478-39.475,39.478-24.113,0-39.829-15.024-39.829-39.127C1431.852,157.842,1448.617,141.425,1471.681,141.425Zm49.252,198.432c-11.875,5.585-32.481,7.679-45.765,7.679-18.164,0-55.886-4.192-55.886-28.646,0-12.573,8.728-19.213,19.213-24.1,19.213,2.439,49.6,2.1,60.081,2.793,18.525,1.049,37.738,4.192,37.738,21.31C1536.314,329.717,1530.713,335.311,1520.933,339.857Zm52.742-38.084h27.256V124.305h-27.256Zm174.673-91.529c-10.826-7.332-24.094-9.78-37.036-12.229l-25.847-4.539c-15.722-2.445-31.792-6.637-31.792-25.853,0-19.564,21.671-25.85,37.74-25.85,20.262,0,38.426,8.382,45.4,27.948l25.162-5.241c-8.732-32.838-38.426-44.716-70.221-44.716-32.481,0-66.367,15.372-66.367,52.054,0,31.442,24.8,44.018,52.054,49.252l28.99,5.244c15.365,2.8,34.578,8.033,34.578,26.9,0,22.7-24.093,29.347-42.965,29.347-21.307,0-49.612-9.085-53.444-33.185l-26.551,5.231c9.072,36.338,43.323,50.664,77.9,50.664,34.594,0,73.709-14.677,73.709-54.85A47.509,47.509,0,0,0,1748.348,210.244Zm98.163,73.013c-22.359,0-28.305-10.825-28.305-31.441l.068-107.251h39.406V122.908h-39.406v-3.7c0-34.1-27.289-38.083-27.289-38.083l-.019,41.778h-31.448v21.657h31.448V247.28c0,35.283,11.534,57.993,50.3,57.993l26.207-2.1V281.51ZM1600.743,102.384c0-34.1-27.292-38.082-27.292-38.082l-.016,42,27.308-.167Zm-385.795,0c0-34.1-27.288-38.082-27.288-38.082l.008,237.47h27.253Z"/><path id="Derm" class="cls-2" d="M56.176,68.914H49.924V64.608h6.252V55.857l.026.037v-.037s5.4.787,5.4,7.533v1.218h7.842v4.306H61.6l-.007,7.007V90.237c0,4.1,1.18,6.252,5.626,6.252l4.167-.347v4.306l-5.21.417c-7.71,0-10-4.515-10-11.53V68.914Zm120.836-10.39-.057,243.249h-24.8V270.334h-.7c-11.18,22.359-29.344,34.939-55.548,34.939-23.407,0-41.223-11.183-54.147-30.048-12.227-18.167-16.77-40.524-16.77-62.182,0-44.368,22.01-93.279,73.365-93.279,22.707,0,38.775,10.831,51.351,28.647l.021-127.971S177.012,24.428,177.012,58.524ZM149.7,196.619c0-12.225-1.745-24.8-9.082-35.284-8.731-12.576-24.456-19.91-39.824-19.91s-28.647,9.431-35.981,22.358c-8.04,13.971-10.483,30.04-10.483,46.114,0,29,7.686,72.666,45.765,72.666,15.721,0,30.043-8.735,39.127-21.314,8.385-11.53,10.478-23.054,10.478-36.328v-28.3ZM73.331,100.171h5.418V82.042c0-3.68.278-6.945,2.708-9.863a9.779,9.779,0,0,1,7.155-3.75,6.51,6.51,0,0,1,6.32,4.168,21.809,21.809,0,0,1,.763,7.015v20.559h5.418V79.612c0-3.89.277-7.223-1.875-10.7a10.852,10.852,0,0,0-9.308-4.931c-5.486,0-8.751,2.708-10.974,7.432h-.208V60.055c0-6.647-5.261-7.5-5.415-7.527l0-.006v.005l-.024-.005,0,19.984ZM102.986,82.53c0-9.725,5.765-18.546,16.322-18.546,10.975,0,15.7,9.168,15.421,18.961H109.1a16.853,16.853,0,0,0,1.458,7.988,10.153,10.153,0,0,0,9.03,5.348,9.712,9.712,0,0,0,9.446-6.806l5.14,1.041c-2.084,6.46-8.265,10.35-15,10.35C108.474,100.866,102.986,92.391,102.986,82.53Zm6.391-3.613h19.378c.07-5.835-3.195-10.766-9.448-10.766C113.4,68.151,109.585,73.36,109.377,78.917Zm607.266,66.349a52.833,52.833,0,0,0-44.716-25.5c-27.253,0-47.514,17.817-57.3,42.27-5.589-24.8-24.1-42.27-49.953-42.27-23.43,0-41.857,15.585-51.484,35.268-1.7-31.037-27.123-34.848-27.123-34.848V301.772h27.253V200.113c0-14.67,1.744-29,10.826-40.522,7.338-9.436,19.913-17.469,32.141-17.469a35.214,35.214,0,0,1,29.7,17.117c5.237,8.735,5.936,20.265,5.936,30.042V301.773h27.25V206.052c0-16.771-.351-29.695,9.78-44.018,8.036-11.527,20.616-19.913,34.241-19.913a33.583,33.583,0,0,1,29.691,18.516c5.588,10.829,4.893,23.408,4.893,35.283V301.771h27.246V195.921C725.024,179.5,725.371,159.938,716.643,145.266ZM355.465,215.134H226.557c0,13.982.7,26.905,7.338,40.179,8.381,16.765,26.9,26.9,45.412,26.9,23.058,0,39.827-13.277,47.513-34.234l25.852,5.241c-10.483,32.49-41.573,52.057-75.462,52.057-53.8,0-81.395-42.631-81.395-92.23,0-48.911,29-93.279,82.1-93.279C333.107,119.764,356.866,165.876,355.465,215.134Zm-30.04-20.262c.348-29.344-16.073-54.146-47.513-54.146-29.7,0-48.911,26.2-49.958,54.146Zm81.06-34.626v-1.978c0-34.1-27.287-38.083-27.287-38.083l.018,181.588h27.246V212.342c0-13.972,1.4-25.152,8.735-38.078,10.131-17.817,24.8-27.948,45.764-27.948h5.59v-26.2l-10.131-.7C430.023,119.415,415.212,138.406,406.485,160.246Z"/></svg>