<?xml version="1.0" encoding="UTF-8" standalone="no"?>
<!-- Created with Inkscape (http://www.inkscape.org/) -->

<svg
   version="1.1"
   id="svg1"
   width="1000"
   height="788.31787"
   viewBox="0 0 1000 788.31787"
   xml:space="preserve"
   xmlns="http://www.w3.org/2000/svg"
   xmlns:svg="http://www.w3.org/2000/svg"><defs
     id="defs1" /><g
     id="g6"
     transform="matrix(0.32889285,0,0,0.32889285,-201.79456,-39.880894)"><path
       d="m 2683.5074,486.49354 -371.528,848.66166 -106.028,-737.54424 c -13.5735,-100.08864 156.9222,-162.01167 156.9222,-162.01167 -15.6907,-34.77605 -69.5521,-33.9312 -69.5521,-33.9312 h -115.362 C 2159.7241,220.14865 2324.2805,88.24602 2501.988,128.539 c 174.7352,39.01553 238.353,229.02413 181.5194,357.95454 z"
       fill="#6e55dc"
       id="path1"
       style="fill:#6e55dc;fill-opacity:1;stroke-width:50.8943" /><path
       d="m 1993.4628,1609.9842 -724.3932,-482.6506 c -184.4916,-122.991 -366.86101,2.5447 -405.45412,131.9026 -56.83361,191.2759 70.82444,350.748 271.00682,350.748 z"
       fill="#fccc12"
       id="path2-8"
       style="fill:#fccc12;fill-opacity:1;stroke-width:50.8943" /><path
       d="m 2088.4315,413.54172 c 26.7194,-187.4588 -141.2316,-326.14564 -322.751,-285.00781 -174.7404,39.02062 -238.3582,229.02413 -181.5246,357.95963 l 371.5281,848.65656 132.7475,-922.03081 z"
       fill="#ef1541"
       id="path3-9"
       style="fill:#ef1541;fill-opacity:1;stroke-width:50.8943" /><path
       d="M 1925.9974,1474.6869 1569.3152,661.6512 c -83.5531,-188.30874 -304.5207,-211.63357 -426.6669,-101.36609 -86.0927,78.04125 -152.68275,290.09724 39.4431,418.60523 z"
       fill="#ff7112"
       id="path4-7"
       style="fill:#ff7112;fill-opacity:1;stroke-width:50.8943" /><path
       d="m 3133.0767,1609.9842 c 200.6099,0 327.8455,-159.467 271.0119,-350.7429 -38.5931,-129.7803 -220.9676,-255.3212 -405.4592,-131.9026 l -724.3932,482.6455 z"
       fill="#05ac3f"
       id="path5-3"
       style="fill:#05ac3f;fill-opacity:1;stroke-width:50.8943" /><path
       d="M 3085.5669,978.89034 C 3277.6927,850.38235 3211.1078,638.32636 3125.01,560.28511 3002.8638,450.01763 2781.9013,473.34246 2698.3482,661.6512 l -356.6822,813.0357 z"
       fill="#069de0"
       id="path6"
       style="fill:#069de0;fill-opacity:1;stroke-width:50.8943" /></g><g
     id="g5"
     transform="matrix(8.202315,0,0,8.202315,-34876.243,-22670.303)"
     style="fill:#001e5a;fill-opacity:1"><path
       d="m 4283.7253,2830.75 h 6.6833 l 13.7582,18.4334 V 2830.75 h 6.267 v 28.5 h -6.684 l -13.7579,-18.475 v 18.475 h -6.2666 z"
       fill="#ffffff"
       id="path7"
       style="fill:#001e5a;fill-opacity:1" /><path
       d="m 4342.3258,2850.275 c 0,7.75 -6.209,8.975 -10.092,8.975 h -16.567 v -28.5 h 16.55 c 5.075,0 9.134,2.8834 9.134,8.2834 0,2.675 -1.884,4.15 -3.317,4.875 2.35,1.1833 4.292,2.925 4.292,6.3666 z m -20.609,-14.1833 v 5.3917 h 9.767 c 1.608,0 3.383,-0.675 3.383,-2.6751 0,-2 -1.383,-2.7166 -3.608,-2.7166 z m 14.167,14.1833 c 0,-2.7333 -2.275,-3.4416 -4.5,-3.4416 h -9.667 v 6.8083 h 9.9 c 1.809,0 4.267,-0.625 4.267,-3.3583 z"
       fill="#ffffff"
       id="path8"
       style="fill:#001e5a;fill-opacity:1" /><path
       d="m 4373.9088,2854.6 c -3.125,2.6833 -6.492,5.4 -13.15,5.4 -8.85,-0.042 -15.709,-6.9 -15.709,-15.0583 0.042,-8.4 7.184,-14.9417 15.792,-14.9417 7.467,0 11.492,4.7917 12.017,5.3167 l -4.709,4.7083 c -1.025,-1.0417 -3.241,-3.4083 -7.35,-3.4083 -5.008,0 -9.083,3.75 -9.083,8.3583 0,4.0167 3.458,8.3583 9.05,8.3583 4.458,0 6.1,-1.4583 8.842,-3.7583 l 4.308,5.025 z"
       fill="#ffffff"
       id="path9"
       style="fill:#001e5a;fill-opacity:1" /><path
       d="m 4280.8583,2854.6 c -3.125,2.6833 -6.4916,5.4 -13.15,5.4 -8.85,-0.042 -15.7083,-6.9 -15.7083,-15.0583 0.042,-8.4 7.1833,-14.9417 15.7917,-14.9417 7.4666,0 11.4916,4.7917 12.0166,5.3167 l -4.7083,4.7083 c -1.025,-1.0417 -3.2417,-3.4083 -7.35,-3.4083 -5.0083,0 -9.0833,3.75 -9.0833,8.3583 0,4.0167 3.4583,8.3583 9.05,8.3583 4.4583,0 6.1,-1.4583 8.8416,-3.7583 l 4.3084,5.025 z"
       fill="#ffffff"
       id="path10"
       style="fill:#001e5a;fill-opacity:1" /></g></svg>
