<svg xmlns="http://www.w3.org/2000/svg" viewBox="0 0 346.62 33.6"><defs><style>.cls-1{fill:#00235f;}.cls-2{fill:#0271c1;}</style></defs><g id="Layer_2" data-name="Layer 2"><g id="Layer_1-2" data-name="Layer 1"><path class="cls-1" d="M346.62,3.51A3.5,3.5,0,1,1,343.17,0,3.51,3.51,0,0,1,346.62,3.51Zm-6.35,0a2.85,2.85,0,1,0,5.69,0,2.85,2.85,0,1,0-5.69,0Zm3-2c.93,0,1.43.38,1.43,1.09a1,1,0,0,1-.67,1c.47.19.59.43.61,1.26a1.76,1.76,0,0,0,.1.6H344a2.24,2.24,0,0,1-.1-.77c-.05-.65-.21-.81-.83-.84h-.56V5.45h-.83V1.53Zm-.82,1.81h.63c.54,0,.79-.21.79-.66s-.23-.63-.73-.63h-.69Z"/><path class="cls-1" d="M46.18,13.87H57.41v5.38H46.18v8H57.41v5.37H39.6V.62H57.41V6H46.18Z"/><path class="cls-1" d="M62.93.62H72c5.18,0,8.69,1.06,11.52,3.56,3.27,2.88,5,7.05,5,12.09S86.74,26,83.47,29c-2.64,2.4-6.48,3.69-11.09,3.69H62.93Zm6.57,26.6h1.25c3.51,0,5.67-.63,7.54-2.21a11,11,0,0,0,3.6-8.54C81.89,10.08,78,6,71.9,6H69.5Z"/><path class="cls-1" d="M100.27,32.64H93.7V.62h10.22c7.58,0,11.86,3.7,11.86,10.23s-4.37,10.8-11.43,10.8h-4.08Zm2.83-16.41c3.8,0,6-1.83,6-5s-2.25-5.14-5.85-5.14h-3V16.23Z"/><path class="cls-1" d="M124.18,27.12l-1.92,5.52h-7l11-32h8.2l11,32h-7.2l-1.83-5.52ZM130.32,8.5l-4.46,13.25h8.88Z"/><path class="cls-1" d="M179.28,14.69v1.73a15.75,15.75,0,0,1-4.66,11.9,16.37,16.37,0,0,1-11.8,5,16.14,16.14,0,0,1-16.47-16.56c0-9.56,7-16.71,16.42-16.71a16.29,16.29,0,0,1,13,6.14L170.79,10c-2.36-2.78-4.71-4-7.88-4-5.61,0-9.89,4.61-9.89,10.66s4.42,10.6,10,10.6a9.47,9.47,0,0,0,7.15-3.21,9.11,9.11,0,0,0,2-4h-8.93V14.69Z"/><path class="cls-1" d="M189.5,13.87h11.24v5.38H189.5v8h11.24v5.37H182.93V.62h17.81V6H189.5Z"/><polygon class="cls-1" points="27.46 18.65 27.46 32.64 34.03 32.64 34.03 5.48 27.46 18.65"/><polygon class="cls-2" points="33.46 0.63 26.59 0.63 16.99 20.07 14.86 15.72 8.09 15.72 16.99 33.6 21.45 24.69 21.45 24.69 33.46 0.63"/><polygon class="cls-1" points="13.38 12.72 7.44 0.63 0 0.63 0 32.64 6.58 32.64 6.58 12.67 6.6 12.72 13.38 12.72"/><path class="cls-1" d="M346.62,3.51A3.5,3.5,0,1,1,343.17,0,3.51,3.51,0,0,1,346.62,3.51Zm-6.35,0a2.85,2.85,0,1,0,5.69,0,2.85,2.85,0,1,0-5.69,0Zm3-2c.93,0,1.43.38,1.43,1.09a1,1,0,0,1-.67,1c.47.19.59.43.61,1.26a1.76,1.76,0,0,0,.1.6H344a2.24,2.24,0,0,1-.1-.77c-.05-.65-.21-.81-.83-.84h-.56V5.45h-.83V1.53Zm-.82,1.81h.63c.54,0,.79-.21.79-.66s-.23-.63-.73-.63h-.69Z"/><path class="cls-1" d="M217.93,32.64h-2.74V3.07h-8.4V.62h19.54V3.07h-8.4Z"/><path class="cls-1" d="M254,5.66c2.4,2.84,3.56,6.53,3.56,11.38,0,5.14-1.88,9.55-5.33,12.43a15.11,15.11,0,0,1-22.13-2.4A17,17,0,0,1,227,16.8c0-5.09,1.58-9.22,4.7-12.29A14.89,14.89,0,0,1,254,5.66Zm-24.19,11c0,8.21,5.18,14.11,12.43,14.11a12.57,12.57,0,0,0,9.22-4.13,15.63,15.63,0,0,0,3.31-9.74c0-4.71-1.2-8.07-3.84-10.66a12.78,12.78,0,0,0-8.59-3.65C235.11,2.54,229.78,8.5,229.78,16.61Z"/><path class="cls-1" d="M264.15.62h8.21c9.16,0,14.88,6,14.88,15.37,0,10.51-6,16.65-16.18,16.65h-6.91Zm2.73,29.57h1.49c6.43,0,8.88-.52,11.38-2.44,3.17-2.45,4.7-6.34,4.7-11.76,0-8.36-4.32-12.92-12.24-12.92h-5.33Z"/><path class="cls-1" d="M294.68,24.24l-3.41,8.4h-2.74l12.58-32h3l12.19,32h-3l-3.12-8.4Zm7.82-20-6.82,17.48h13.49Z"/><path class="cls-1" d="M327.36,32.64h-2.73V18.58L313.4.62h3.21l9.32,15.08L335.19.62h3.22l-11.05,18Z"/></g></g></svg>