<?xml version="1.0" encoding="utf-8"?>
<!-- Generator: Adobe Illustrator 28.2.0, SVG Export Plug-In . SVG Version: 6.00 Build 0)  -->
<svg version="1.1" id="svg4749" xmlns:svg="http://www.w3.org/2000/svg"
	 xmlns="http://www.w3.org/2000/svg" xmlns:xlink="http://www.w3.org/1999/xlink" x="0px" y="0px" viewBox="0 0 400 90.5"
	 enable-background="new 0 0 400 90.5" xml:space="preserve">
<g id="layer1" transform="translate(-5.8047432,-105.25424)">
	<path id="path96" fill="#333132" d="M336.8,173.5c-3.2,0-8.2-2.8-10.1-6.4c-1.8-3.4-2.2-5.2-2.2-12.8l0-1.4c0-2.9,0-5.8,0.5-9.1
		c1.6-10.3,9.4-12.5,12.2-12.5c8.4,0,11.4,5.6,11.4,21.5C348.6,173.5,342.3,173.5,336.8,173.5 M338.1,127.8
		c-5.7,0-10.8,3.2-13.8,8.4v-7.6c0-0.7-0.5-0.8-0.8-0.7c-0.1,0-0.1,0-0.2,0c-0.1,0-0.1,0-0.1,0l0,0c-2,0.4-3.9,0.7-5.8,0.8
		c-2.2,0.2-5.3,0.3-5.3,0.3l-0.3,0c-1.4,0.1-2,0.5-1.8,1.4c0.1,0.7,1,1,1.6,1.1c1.1,0.2,1.3,0.3,2.5,0.7c0.3,0.1,0.8,0.2,0.8,1
		l0-0.3c0,4.4,0,56,0,59.5c0,3.5,0.1,3.3,3.6,3.3l6.6,0h0.2c3.1,0,4.5,0,4.3-1.3c-0.1-0.7-1.2-0.9-1.7-1c-2.3-0.6-3.4-2.7-3.5-5.3
		c0,0,0-13.7,0.1-18.9c3,4.8,7.3,7.3,13.1,7.3c14.3,0,22.1-12,22.1-23.3C359.7,134.6,346.8,127.8,338.1,127.8 M185.7,158.7
		L185.7,158.7L185.7,158.7C185.7,158.7,185.7,158.7,185.7,158.7 M218.6,160.4c0-7.7-3.5-11.6-12.2-13.4c-17.4-3.5-18.1-5.2-18.1-8.2
		c0-0.8,0.5-3.4,2.5-5.4c1.9-1.8,4.5-2.7,7.9-2.6c7.7,0.4,10.8,6.4,12.1,11.4c0,0,0,0.1,0.1,0.3c0.3,1.8,3.1,1.9,3.1,0v-13l0,0
		c0-0.8-0.4-1.3-1.1-1.3c-0.1,0-0.1,0-0.2,0c0,0,0,0,0,0c-0.8-0.1-1.3,1-1.6,1.5c-0.5,0.8-1.3,2-1.5,2.3c-3.5-2.7-7-4.1-10.5-4.1
		c-12.5,0-15.8,9.1-15.8,14.4c0,9.7,6.2,11.2,13.3,12.9l1.2,0.3c8.8,2.2,15.5,4.3,15.5,8.6c0,2.1-0.8,3.9-2.1,5.4l0,0l-0.2,0.2
		c-2.2,2.3-5.5,3.8-8.6,3.8c-7.9,0-14-5.4-16.4-14.5l-0.1-0.2l0,0c-0.1-0.5-0.4-1.7-1.1-1.8c-0.2,0-0.3,0-0.4,0
		c-0.7,0-1,0.6-1.1,1.8h0c-0.1,0.5-0.1,0.7-0.1,0.7v14.8l0,0c0,1.3,0.3,1.9,1.2,1.9c0.6,0,1.1-0.8,1.4-1.4c0.3-0.6,2.1-3.5,2.4-4
		c3.3,3.5,8.3,5.6,13.5,5.6c4.8,0,9.2-1.6,12.3-4.5l0.2-0.3l0,0C217,168.9,218.6,165,218.6,160.4 M294.3,161.4
		c0,4.4-1.4,5.7-2.2,6.6l-0.2,0.2c-2.7,2.3-5,3.2-8.6,3.2c-5.1,0-8.5-3.4-8.5-8.7c0-7.4,6.6-11.3,19.4-11.5L294.3,161.4z
		 M312.3,166.2c-0.1-1.3-0.5-1.8-1.4-1.6c-0.8,0.1-1,1.3-1.2,1.8h0l-0.1,0.2c-1,3.3-2.2,4.9-3.7,4.9c-2,0-2.1-1.3-2.1-4.9v-27.2
		c0-4.6,0-11.6-15.9-11.6c-13.6,0-18.6,6.9-18.6,11.3c0,3.5,2,5.8,5.2,5.8c3,0,5-2.1,5-5.1c0-2.7-1.7-3.9-2.7-4.6
		c-0.3-0.2-0.7-0.5-0.7-0.6c0-2.9,7.5-3.8,10.3-3.8c2.4,0,7.9,0.6,7.9,6.6V148c-17.9,0.1-28.4,6.2-28.7,16.9
		c0,7.5,4.9,11.6,13.7,11.6c6.2,0,11.6-2.4,15.3-6.7c1,4.3,3.7,6.7,7.6,6.7c5.4,0,9.7-4.2,10.1-9.7l0-0.4L312.3,166.2z M374.6,137.8
		c0.3-1.1,3.5-7,9.9-7c4.6,0,10.2,1.8,10.2,10.5v3.5h-21.1C373.7,142,374,139.6,374.6,137.8 M405.8,159.5L405.8,159.5
		c0.1-1.3-0.4-2-1.5-2c-0.1,0-0.2,0-0.3,0.1c-0.8,0.2-1.1,1.4-1.3,1.9h0c-0.1,0.2-0.1,0.4-0.1,0.5h0l-0.1,0.3
		c-1.6,7.7-9.4,13-15.4,13c-11.4,0-13.6-7.4-13.6-20.1v-4.3H403c1.4,0,3.1,0.4,2.6-3.3c-1.4-10.6-9.5-17.7-20.7-17.7
		c-14.3,0-22.9,13.3-22.9,26.2c0,13.4,12,22.4,23.2,22.4c10.8,0,18.3-5.8,20.5-15.9l0.1-0.4h0C405.8,159.9,405.8,159.7,405.8,159.5
		 M264.2,159.5L264.2,159.5c0.1-1.3-0.4-2-1.4-1.9c-0.1,0-0.2,0-0.3,0.1c-0.8,0.2-1.1,1.3-1.3,1.9h0c-0.1,0.2-0.1,0.5-0.2,0.6h0
		l-0.1,0.2c-2.7,8.1-8.9,13.4-15.4,13c-5.5-0.3-9.1-2.4-10.9-6.3c-0.1-0.2-2.4-5.6-2.4-13.6c0-16.5,3.7-22.6,13.5-22.6
		c2.8,0,9.4,1.4,9.4,4c0,0.3-0.4,0.6-0.9,1c-1.1,0.9-2.8,2.2-2.8,5.3c0,3.4,2.4,5.7,5.7,5.7c3.6,0,5.5-3.3,5.5-6.4
		c0-9.2-10.9-12.6-18.3-12.6c-6,0-23.2,4.7-23.2,25.6c0,6.4,4.2,23,23.4,23c12.8-0.5,17.1-8.8,19.4-15.9l0.1-0.5h0
		C264.2,159.9,264.2,159.7,264.2,159.5"/>
	<path id="path108" fill="#005B81" d="M115.8,131.4c2.7,0,4.2,1.7,4.2,4.4c0,11.1-12.3,16-21.7,16.6
		C99.9,145.7,108,131.4,115.8,131.4 M132.1,147.3c-1.3,3.3-3.9,8.1-6,10.8c-0.5,0.6-10.4,12.6-20.8,12.6c-4.8,0-8.4-2.7-8.4-7.8
		c0-2.7,0.2-4.9,0.8-7.6c10.9-1,30.4-6.1,30.4-19.9c0-5.6-5.4-7.2-10-7.2c-14.8,0-29.4,18-29.4,34.3c0,6.8,3.2,13.8,12.5,13.8
		c14.5,0,23.6-11.7,26.6-16.1c0.6-0.9,1.8-3,2.4-4.1 M158.9,170.5c-1.5,1.2-4.8,3-7.7,3c-8.8,0-11.3-5-11.3-23.2
		c0-9.5,0.8-19.5,10.7-19.5c6.5,0,11.2,4.2,13.2,11.7c0.8,2.6,0.8,8.4,0.8,10.1C164.6,164.4,163.2,166.6,158.9,170.5 M181.3,174
		c-0.1-0.6-0.9-0.8-1.4-1l-0.3-0.1c-1.7-0.6-3.2-2.7-3.8-4.1c-0.2-0.6-0.3-1.6-0.4-2.2c0-1.9-0.1-6.2-0.3-11.8l0-45.5
		c0,0,0-0.7,0-0.7c0-3.4,0.3-3.2-3.9-3.3l-7.3,0h-0.2c-3.1,0-4.5,0-4.3,1.4c0.1,0.7,1.2,0.9,1.7,1c2.3,0.6,3.4,2.8,3.5,5.3l0,22.6
		h-0.2c-3.1-6.1-10.1-7.5-13.8-7.5c-13.7,0-21.4,11-21.4,23.9c0,1.2,0.1,2.4,0.2,3.5c0.2,1.8,1,4.8,1,4.6c2.8,9.3,10,16.1,19,16.1
		c5.3,0,12.1-2.3,15-7.4h0.2c0,0,0.2,1.1,0.2,3.4c0,3.2-0.2,3.1,3.3,3.1h7.2v0l1.3,0c2.6,0,4.1,0,4.6-0.6c0.1-0.1,0.2-0.3,0.2-0.5
		C181.3,174.2,181.3,174.1,181.3,174 M87.3,172.8c-2.1-0.7-3.7-3.2-3.7-4.5c0-1.3-1.3-57.5-1.3-57.5c-0.1-2.9,0.1-5-0.7-5.3
		c-0.9-0.4-4.9-0.3-6-0.3c-2.5,0-4.4-0.1-4.9,0.5c-0.5,0.6-1.4,2.6-2.4,5.3l-5.1,11.5c-1.3,2.6-3.6,7-4.9,9.6l-7.8,15.1
		c-1.3,2.6-3.6,2.6-5,0.1l-8.1-15c-1.4-2.6-3.7-6.7-5.1-9.3l-5.7-12.1c-1.2-2.7-1.7-4.7-2.3-5.2c-0.5-0.4-2.5-0.4-5.4-0.4h-6.8
		c-3.4,0-4.9,0-4.7,1.5c0.1,0.8,1.3,1,1.8,1.2c2.1,0.6,2.9,3.2,2.9,4.4c0,1.3,0,52.5-0.3,54.7c0,0.4-0.1,0.8-0.2,1.2
		c0,0-0.1,0.1-0.1,0.1c-0.4,2.2-1.6,3.9-3.7,4.5c-0.5,0.1-1.7,0.4-1.8,1.2c-0.2,1.4,1.4,1.5,4.8,1.5l2.3,0c0.2,0,0.4,0,0.6,0
		c0,0,0,0,0.1,0h2.7l5.6,0c3.4,0,5-0.1,4.8-1.5c-0.1-0.8-1.3-1-1.8-1.2c-2.1-0.6-3-1.9-3.7-4.5c0,0,0,0,0,0
		c-0.4-1.6-0.5-3.9-0.5-3.9c-0.1-2.9-0.2-7.7-0.1-10.6l0-0.9c0-2.9,0.1-7.7,0.2-10.6l0.3-11.5c0.1-2.9,1.2-3.2,2.6-0.6l7.6,14.1
		c1.4,2.6,8.6,16.3,9.9,18.9c1.1,2.2,1.3,3,4.7,3.1c3.8,0,3.8-1,5.4-4.4c1.1-2.5,17.4-34.4,17.4-34.4c1.3-2.6,2.5-2.3,2.5,0.6
		c0,0,0.2,39-0.1,40.7c0,0.3-0.1,0.5-0.1,0.6c-0.6,1.7-1.7,3-3.5,3.5c-0.5,0.1-1.7,0.4-1.8,1.2c-0.2,1.4,1.4,1.5,4.8,1.5l7.1,0
		l3.2,0l1.6,0c0,0,0.1,0,0.1,0l2.1,0c3.4,0,5-0.1,4.8-1.5C89,173.2,87.8,173,87.3,172.8"/>
</g>
</svg>
