<?xml version="1.0" encoding="UTF-8"?>
<svg id="Layer_1" xmlns="http://www.w3.org/2000/svg" version="1.1" viewBox="0 0 256 52.29">
  <!-- Generator: Adobe Illustrator 29.0.0, SVG Export Plug-In . SVG Version: 2.1.0 Build 186)  -->
  <defs>
    <style>
      .st0, .st1 {
        fill: #5a5a5a;
      }

      .st1, .st2 {
        fill-rule: evenodd;
      }

      .st2 {
        fill: #1ab78d;
      }
    </style>
  </defs>
  <g id="Group_4237">
    <path id="Fill-1" class="st1" d="M8.698,42.142c2.05.9,4.199,1.35,6.449,1.35,8.348,0,15.147-6.499,15.147-14.497,0-4.099-1.8-7.998-4.949-10.698l.05,13.397s0,1.95.05,3.649l-3.249.05c-.1-.45-.2-.9-.2-1.4-1.75,1-3.699,1.55-5.749,1.55,0,0-4.699.35-7.648-2.15l.1,8.748"/>
    <path id="Fill-3" class="st1" d="M60.288,6.699c0-.75-.05-1.5-.1-2.3h2.549c.05.45.1.95.1,1.4,1.35-1.15,3.449-1.8,5.749-1.8,3.949,0,7.349,2.15,7.349,5.399s-3.399,5.399-7.349,5.399c-2.1,0-4.149-.4-5.749-1.7v5.199h-2.549V6.699M68.037,13.497c3.049,0,5.199-1.5,5.199-4.049s-2.1-4.049-5.199-4.049c-3.049,0-5.199,1.5-5.199,4.049.05,2.549,2.2,4.049,5.199,4.049"/>
    <path id="Fill-5" class="st1" d="M78.285,6.699c0-.75-.05-1.5-.1-2.3h2.4c.05.6.1,1.3.1,2h.05c1.2-1.6,2.35-2.15,5.249-2.15h.85v1.75c-.4-.1-.8-.15-1.25-.1-3.099,0-4.799,1.65-4.799,3.699v4.849h-2.55v-7.748"/>
    <path id="Fill-7" class="st1" d="M88.533,7.049c.3-2.4,3.699-2.999,6.549-2.999,3.649,0,6.299,1.05,6.299,3.549v4.949c0,.65,0,1.3.1,1.9h-2.4c-.05-.45-.1-.95-.1-1.4h-.05c-1.5,1.5-3.149,1.8-5.749,1.8-3.349,0-5.599-1.4-5.599-3.299,0-2.1,2.1-3.199,6.749-3.349,1.95-.05,3.249-.05,4.499-.05v-.3c0-1.9-1.55-2.5-4.099-2.5-1.8,0-3.349.55-3.449,1.65l-2.749.05h0ZM98.831,9.548c-.85,0-2.1,0-4.099.05-2.649.1-4.399.4-4.399,1.9,0,1,1.05,2,3.549,2,3.149,0,4.949-1.05,4.949-3.449v-.5h0Z"/>
    <path id="Fill-9" class="st1" d="M117.927,11.248c-.25,2.549-3.649,3.649-6.999,3.649-4.899,0-7.499-2.15-7.499-5.399,0-3.399,2.999-5.449,7.698-5.449,3.149,0,6.249.95,6.699,3.599h-2.699c-.25-1.45-1.8-2.2-3.949-2.2-2.749,0-5.049,1.4-5.049,4.049,0,2.15,1.65,4.049,4.899,4.049,2.4,0,4.049-.85,4.149-2.25l2.749-.05"/>
    <path id="Fill-11" class="st1" d="M122.576,2.549l2.55-.8v2.649h3.899v1.35h-3.899v5.799c0,1.1.4,1.65,2,1.65.45,0,1.25-.05,1.95-.1v1.35c-.85.1-1.7.1-2.45.1-2.599,0-4.049-.65-4.049-2.899v-5.849h-3.449v-1.35h3.449v-1.9"/>
    <path id="Fill-13" class="st1" d="M131.524,2h2.55V0h-2.55v2ZM131.524,14.447h2.55V4.399h-2.55s0,10.048,0,10.048Z"/>
    <path id="Fill-15" class="st1" d="M151.07,11.248c-.25,2.549-3.649,3.649-6.999,3.649-4.899,0-7.499-2.15-7.499-5.399,0-3.399,2.999-5.449,7.698-5.449,3.149,0,6.249.95,6.699,3.599h-2.699c-.25-1.45-1.8-2.2-3.949-2.2-2.799,0-5.049,1.4-5.049,4.049,0,2.15,1.65,4.049,4.899,4.049,2.4,0,4.049-.85,4.149-2.25l2.749-.05"/>
    <path id="Fill-16" class="st1" d="M153.92,7.049c.3-2.4,3.699-2.999,6.549-2.999,3.649,0,6.299,1.05,6.299,3.549v4.949c0,.65,0,1.3.1,1.9h-2.4c-.05-.45-.1-.95-.1-1.4h-.05c-1.5,1.5-3.149,1.8-5.749,1.8-3.299,0-5.599-1.4-5.599-3.299,0-2.1,2.1-3.199,6.749-3.349,1.95-.05,3.249-.05,4.499-.05v-.3c0-1.9-1.55-2.5-4.099-2.5-1.8,0-3.349.55-3.449,1.65l-2.749.05h0ZM164.218,9.548c-.85,0-2.1,0-4.099.05-2.649.1-4.399.4-4.399,1.9,0,1,1.05,2,3.549,2,3.149,0,4.949-1.05,4.949-3.449v-.5h0Z"/>
    <path id="Fill-17" class="st1" d="M169.417,14.447h2.55V0h-2.55v14.447Z"/>
    <path id="Fill-18" class="st2" d="M48.99,43.791v-2.45h-.1c-1.2,2.15-2.999,2.899-5.449,2.899-6.699,0-6.449-7.099-6.449-11.648,0-4.449-.2-11.348,6.299-11.348,2.35,0,3.949.65,5.249,2.549h.1v-11.598h6.449v31.594h-6.099M48.69,32.544c0-4.399.05-7.499-2.599-7.499-2.799,0-2.749,3.049-2.749,7.499,0,5.549.4,7.898,2.749,7.898,2.15-.05,2.599-2.35,2.599-7.898"/>
    <path id="Fill-19" class="st2" d="M63.637,33.693c0,2.649.1,6.549,2.949,6.549,2.3,0,2.749-2.1,2.749-3.949h6.549c-.1,2.4-.9,4.399-2.45,5.749-1.5,1.35-3.799,2.15-6.799,2.15-8.348,0-9.448-4.849-9.448-11.798,0-6.049.9-11.198,9.448-11.198,8.698,0,9.648,5.399,9.448,12.498h-12.448.002,0ZM69.586,30.244c0-2.15.1-5.199-2.999-5.199-2.999,0-2.949,3.349-2.949,5.199h5.949,0Z"/>
    <path id="Fill-20" class="st2" d="M83.983,21.646v2.849h.1c1.2-2.549,3.399-3.299,5.999-3.299v5.499c-5.699-.35-5.749,2.799-5.749,4.999v12.098h-6.449v-22.096h6.099"/>
    <path id="Fill-21" class="st2" d="M98.681,23.895h.1c1.3-1.95,2.999-2.649,5.449-2.649,2.1-.05,4.099,1,5.149,2.799,1.5-1.95,3.349-2.799,5.999-2.799,3.049,0,5.749,1.75,5.749,4.799v17.746h-6.449v-15.247c0-1.95-.35-3.499-2.45-3.499-2.05,0-2.45,1.55-2.45,3.499v15.247h-6.249v-15.247c0-1.95-.35-3.499-2.45-3.499s-2.45,1.55-2.45,3.499v15.247h-6.449v-22.096h6.449v2.2"/>
    <path id="Fill-22" class="st2" d="M141.472,39.692c0,1.35.2,2.749.3,4.099h-5.999l-.3-2.949h-.1c-1.4,2.3-3.249,3.349-6.049,3.349-4.499,0-6.149-3.199-6.149-7.049,0-7.299,5.899-7.599,11.898-7.549v-1.7c0-1.9-.25-3.249-2.599-3.249-2.25,0-2.45,1.6-2.45,3.349h-6.299c0-2.649.85-4.399,2.4-5.399,1.45-1.05,3.549-1.45,6.049-1.45,8.198,0,9.248,3.349,9.248,7.399l.05,11.148M129.574,36.893c0,1.6.25,3.499,2.4,3.499,3.799,0,3.199-4.899,3.199-7.299-3.199.15-5.599-.15-5.599,3.799"/>
    <path id="Fill-23" class="st2" d="M143.072,21.646h2.599v-3.499l6.449-2.749v6.249h3.349v3.799h-3.349v11.848c0,1.65-.05,2.749,2.05,2.749.4,0,.75,0,1.15-.1v3.799c-1.1.15-2.2.2-3.349.2-5.599,0-6.299-3.549-6.299-4.899v-13.597h-2.599v-3.799"/>
    <path id="Fill-24" class="st2" d="M156.019,32.444c0-6.049.9-11.198,9.448-11.198s9.448,5.149,9.448,11.198c0,6.899-1.1,11.798-9.448,11.798s-9.448-4.899-9.448-11.798M168.417,32.094c0-4.599-.25-6.899-2.999-6.899s-2.999,2.3-2.999,6.899c0,6.749.6,8.198,2.999,8.198s2.999-1.45,2.999-8.198"/>
    <path id="Fill-25" class="st2" d="M176.965,43.791h6.449V12.198h-6.449v31.594h0Z"/>
    <path id="Fill-26" class="st2" d="M185.863,32.444c0-6.049.9-11.198,9.448-11.198,8.498,0,9.448,5.149,9.448,11.198,0,6.899-1.1,11.798-9.448,11.798s-9.448-4.899-9.448-11.798M198.261,32.094c0-4.599-.25-6.899-2.999-6.899s-2.999,2.3-2.999,6.899c0,6.749.6,8.198,2.999,8.198s2.999-1.45,2.999-8.198"/>
    <path id="Fill-27" class="st2" d="M225.156,21.646v23.045c0,1.55.1,7.598-8.798,7.598-4.799,0-8.948-1.2-9.048-6.549h6.299c-.05.8.15,1.55.55,2.25.4.55,1.15.9,2.15.9,1.6,0,2.4-1.45,2.4-3.699v-4.249h-.1c-.95,1.7-2.799,2.599-4.899,2.599-7.099,0-6.799-6.199-6.799-11.198,0-4.849.1-11.048,6.799-11.048,2.3,0,4.249.95,5.149,2.999h.1v-2.599h6.199M216.057,39.642c2.35,0,2.649-2.3,2.649-6.999,0-4.849-.25-7.599-2.599-7.599-2.45,0-2.849,1.6-2.849,8.348,0,2.05-.35,6.249,2.799,6.249"/>
    <path id="Fill-28" class="st2" d="M5.449,40.192c-3.449-2.699-5.449-6.799-5.449-11.148,0-7.998,6.799-14.497,15.147-14.497,2.4,0,4.749.55,6.899,1.6v7.299s-2.1-1.75-6.949-1.6c0,0-4.049.15-6.349,2.25,0,0-.05-1-.15-1.75l-3.299.05s.15,1.6.1,2.15l.05,15.647"/>
    <path id="Fill-29" class="st2" d="M21.546,28.744c0,2.699-2.799,4.899-6.299,4.899s-6.299-2.2-6.299-4.899,2.799-4.899,6.299-4.899,6.299,2.2,6.299,4.899"/>
    <path id="Fill-30" class="st2" d="M233.554,43.941l-6.299-22.296h6.399l3.299,15.547h.1l3.499-15.547h6.249l-8.948,30.494h-6.749l2.45-8.198Z"/>
    <g id="_">
      <path id="Shape" class="st0" d="M252.801,21.659c-1.8,0-3.199,1.45-3.199,3.199s1.45,3.199,3.199,3.199,3.149-1.4,3.199-3.099v-.05c0-1.8-1.45-3.249-3.199-3.249h0ZM252.801,22.159c1.45,0,2.649,1.2,2.649,2.649v.05c.05,1.45-1.15,2.649-2.599,2.699s-2.649-1.15-2.699-2.599v-.1c0-1.45,1.15-2.649,2.649-2.699-.05,0,0,0,0,0h0ZM252.951,25.158l.75,1.4h.8l-.95-1.45c.45-.1.8-.5.8-1,0-.95-.8-1.1-1.35-1.1h-1.55v3.549h.65v-1.4h.85ZM252.101,23.508h.75c.4,0,.85,0,.85.6,0,.5-.45.55-.85.55h-.75v-1.15Z"/>
    </g>
  </g>
</svg>